<?xml version="1.0" encoding="UTF-8"?>
<svg version="1.1" xmlns="http://www.w3.org/2000/svg" width="529" height="535">
<path d="M0 0 C174.57 0 349.14 0 529 0 C529 176.55 529 353.1 529 535 C354.43 535 179.86 535 0 535 C0 358.45 0 181.9 0 0 Z " fill="#716855" transform="translate(0,0)"/>
<path d="M0 0 C174.57 0 349.14 0 529 0 C529 48.84 529 97.68 529 148 C506.23 148 483.46 148 460 148 C460 156.25 460 164.5 460 173 C457.69 172.67 455.38 172.34 453 172 C451.99569612 168.69678176 451.92649186 165.75359993 452 162.3125 C452.03751917 160.54206418 452.04681559 158.77021439 452 157 C450.50256881 155.50256881 449.01175761 155.66797307 446.9375 155.4375 C445.638125 155.293125 444.33875 155.14875 443 155 C443.01740234 153.39318359 443.01740234 153.39318359 443.03515625 151.75390625 C443.04453299 150.35677257 443.05363331 148.95963701 443.0625 147.5625 C443.07087891 146.85544922 443.07925781 146.14839844 443.08789062 145.41992188 C443.09653588 143.61306441 443.05220011 141.80612397 443 140 C441.81147145 138.58225162 441.81147145 138.58225162 438.40234375 138.90234375 C436.91403133 138.9090178 435.42573568 138.92097817 433.9375 138.9375 C432.79958008 138.94426758 432.79958008 138.94426758 431.63867188 138.95117188 C429.75908129 138.9629932 427.87953101 138.98092922 426 139 C426.01160156 140.14339844 426.02320313 141.28679687 426.03515625 142.46484375 C426.04453288 143.95572754 426.05363321 145.44661309 426.0625 146.9375 C426.07087891 147.69224609 426.07925781 148.44699219 426.08789062 149.22460938 C426.09652441 151.14994313 426.05224333 153.07535581 426 155 C425.67 155.33 425.34 155.66 425 156 C422.69 156 420.38 156 418 156 C418 164.58 418 173.16 418 182 C415.03 182 412.06 182 409 182 C409 184.64 409 187.28 409 190 C406.36 190 403.72 190 401 190 C401 192.97 401 195.94 401 199 C392.42 199.33 383.84 199.66 375 200 C375.0309375 203.4340625 375.0309375 203.4340625 375.0625 206.9375 C375.08370868 209.29166332 375.07271741 211.64686445 375 214 C374 215 374 215 371.68334961 215.11352539 C370.68311768 215.10828857 369.68288574 215.10305176 368.65234375 215.09765625 C367.57275391 215.09443359 366.49316406 215.09121094 365.38085938 215.08789062 C364.24455078 215.07951172 363.10824219 215.07113281 361.9375 215.0625 C360.79732422 215.05798828 359.65714844 215.05347656 358.48242188 215.04882812 C355.65489649 215.03699747 352.8274736 215.0205141 350 215 C350 217.97 350 220.94 350 224 C352.97 224 355.94 224 359 224 C359.02477057 229.17781223 359.04289347 234.35558975 359.05493164 239.53344727 C359.0599517 241.29387005 359.0667691 243.05428868 359.07543945 244.81469727 C359.08760703 247.34913154 359.09325166 249.88351054 359.09765625 252.41796875 C359.10281754 253.20149216 359.10797882 253.98501556 359.11329651 254.7922821 C359.11369066 258.65591139 358.9444276 262.245165 358 266 C355.36 266 352.72 266 350 266 C350 268.64 350 271.28 350 274 C347.36 274 344.72 274 342 274 C342 276.97 342 279.94 342 283 C336.39 283 330.78 283 325 283 C325 285.64 325 288.28 325 291 C320.05 291 315.1 291 310 291 C309 286 309 286 309 283 C306.03 283 303.06 283 300 283 C300 280.03 300 277.06 300 274 C297.36 274 294.72 274 292 274 C292 271.36 292 268.72 292 266 C289.03 266 286.06 266 283 266 C283 263.36 283 260.72 283 258 C280.03 258 277.06 258 274 258 C274 249.42 274 240.84 274 232 C268.72 232 263.44 232 258 232 C258 229.36 258 226.72 258 224 C255.03 224 252.06 224 249 224 C248.90234375 217.84765625 248.90234375 217.84765625 249 216 C250 215 250 215 253.87719727 214.88647461 C255.60694167 214.88663379 257.33669081 214.89233151 259.06640625 214.90234375 C259.97502914 214.9037587 260.88365204 214.90517365 261.81980896 214.90663147 C264.73407221 214.91224807 267.64825981 214.92480335 270.5625 214.9375 C272.53320202 214.94251286 274.50390524 214.94707614 276.47460938 214.95117188 C281.31643559 214.96222289 286.15820495 214.97949862 291 215 C291 217.97 291 220.94 291 224 C288.36 224 285.72 224 283 224 C283 226.64 283 229.28 283 232 C288.61 232 294.22 232 300 232 C300 226.39 300 220.78 300 215 C302.64 215 305.28 215 308 215 C307.9690625 213.2984375 307.9690625 213.2984375 307.9375 211.5625 C308 208 308 208 309 207 C311.67058851 206.85884839 314.32432238 206.95752893 317 207 C317 204.36 317 201.72 317 199 C319.31 199 321.62 199 324 199 C324.33 193.39 324.66 187.78 325 182 C316.75 182 308.5 182 300 182 C299.67 179.36 299.34 176.72 299 174 C293.72 173.67 288.44 173.34 283 173 C283 175.64 283 178.28 283 181 C277.39 181 271.78 181 266 181 C265.67 178.69 265.34 176.38 265 174 C259.72 173.67 254.44 173.34 249 173 C249 175.97 249 178.94 249 182 C246.03 182 243.06 182 240 182 C240 179.03 240 176.06 240 173 C234.72 173 229.44 173 224 173 C224 161.78 224 150.56 224 139 C221.36 139 218.72 139 216 139 C216 136.36 216 133.72 216 131 C213.03 131 210.06 131 207 131 C207 128.36 207 125.72 207 123 C204.03 123 201.06 123 198 123 C198 120.03 198 117.06 198 114 C184.14 114 170.28 114 156 114 C156 116.97 156 119.94 156 123 C153.36 123 150.72 123 148 123 C148 128.28 148 133.56 148 139 C145.36 139 142.72 139 140 139 C140 150.22 140 161.44 140 173 C142.64 173 145.28 173 148 173 C148 175.97 148 178.94 148 182 C150.64 182 153.28 182 156 182 C156 184.64 156 187.28 156 190 C150.39 190 144.78 190 139 190 C139 187.03 139 184.06 139 181 C136.36 181 133.72 181 131 181 C131 178.36 131 175.72 131 173 C128.36 173 125.72 173 123 173 C123 167.39 123 161.78 123 156 C124.32 156 125.64 156 127 156 C127 155.34 127 154.68 127 154 C126.01 154 125.02 154 124 154 C123.67 152.02 123.34 150.04 123 148 C120.03 148 117.06 148 114 148 C113.855625 148.763125 113.71125 149.52625 113.5625 150.3125 C113 153 113 153 112 156 C107.05 156 102.1 156 97 156 C97 169.86 97 183.72 97 198 C94.36 198 91.72 198 89 198 C89 206.58 89 215.16 89 224 C86.03 224 83.06 224 80 224 C80 243.47 80 262.94 80 283 C85.61 283 91.22 283 97 283 C97 288.61 97 294.22 97 300 C99.97 300 102.94 300 106 300 C106.04241723 302.33294775 106.04092937 304.66702567 106 307 C105 308 105 308 103.15234375 308.09765625 C101.1015625 308.06510417 99.05078125 308.03255208 97 308 C96.505 304.535 96.505 304.535 96 301 C90.72 300.67 85.44 300.34 80 300 C80 302.64 80 305.28 80 308 C82.97 308 85.94 308 89 308 C89 310.97 89 313.94 89 317 C86.03 317 83.06 317 80 317 C80 319.64 80 322.28 80 325 C77.36 325 74.72 325 72 325 C72 333.25 72 341.5 72 350 C69.36 350.33 66.72 350.66 64 351 C63.505 358.92 63.505 358.92 63 367 C60.36 367 57.72 367 55 367 C55 372.61 55 378.22 55 384 C57.64 384 60.28 384 63 384 C63 381.36 63 378.72 63 376 C65.97 376 68.94 376 72 376 C72 384.25 72 392.5 72 401 C69.36 401.33 66.72 401.66 64 402 C63.67 429.39 63.34 456.78 63 485 C65.97 485 68.94 485 72 485 C72 501.5 72 518 72 535 C48.24 535 24.48 535 0 535 C0 358.45 0 181.9 0 0 Z " fill="#9A8165" transform="translate(0,0)"/>
<path d="M0 0 C2.19797403 4.39594806 2.10073202 5.99267976 1.625 10.75 C1.51414062 11.92046875 1.40328125 13.0909375 1.2890625 14.296875 C1.19367188 15.18890625 1.09828125 16.0809375 1 17 C2.918125 16.938125 2.918125 16.938125 4.875 16.875 C7.0546875 16.8046875 7.0546875 16.8046875 9 17 C11 19 11 19 11.1953125 22.4765625 C11.18201493 23.85950968 11.15816232 25.24238654 11.125 26.625 C11.11597656 27.33140625 11.10695313 28.0378125 11.09765625 28.765625 C11.07407603 30.51056098 11.03820461 32.25532295 11 34 C13.31 34.33 15.62 34.66 18 35 C18 26.75 18 18.5 18 10 C40.77 10 63.54 10 87 10 C87 137.71 87 265.42 87 397 C8.79 397 -69.42 397 -150 397 C-150 319.45 -150 241.9 -150 162 C-144.72 162 -139.44 162 -134 162 C-134 156.39 -134 150.78 -134 145 C-133.67 145.99 -133.34 146.98 -133 148 C-132.34 148.33 -131.68 148.66 -131 149 C-131.33 149.99 -131.66 150.98 -132 152 C-127.05 152.33 -122.1 152.66 -117 153 C-117 150.36 -117 147.72 -117 145 C-111.39 145 -105.78 145 -100 145 C-100 142.03 -100 139.06 -100 136 C-97.36 136 -94.72 136 -92 136 C-92 133.36 -92 130.72 -92 128 C-89.36 128 -86.72 128 -84 128 C-83.67 114.14 -83.34 100.28 -83 86 C-85.97 86 -88.94 86 -92 86 C-92 83.03 -92 80.06 -92 77 C-84.08 76.67 -76.16 76.34 -68 76 C-68 71.05 -68 66.1 -68 61 C-59.09 61 -50.18 61 -41 61 C-41 58.03 -41 55.06 -41 52 C-38.36 52 -35.72 52 -33 52 C-33 49.36 -33 46.72 -33 44 C-30.03 44 -27.06 44 -24 44 C-24 35.42 -24 26.84 -24 18 C-21.69 17.67 -19.38 17.34 -17 17 C-16.67 11.72 -16.34 6.44 -16 1 C-8.08 0.505 -8.08 0.505 0 0 Z " fill="#85735C" transform="translate(442,138)"/>
<path d="M0 0 C2.19797403 4.39594806 2.10073202 5.99267976 1.625 10.75 C1.51414062 11.92046875 1.40328125 13.0909375 1.2890625 14.296875 C1.19367188 15.18890625 1.09828125 16.0809375 1 17 C2.918125 16.938125 2.918125 16.938125 4.875 16.875 C7.0546875 16.8046875 7.0546875 16.8046875 9 17 C11 19 11 19 11.1953125 22.4765625 C11.18201493 23.85950968 11.15816232 25.24238654 11.125 26.625 C11.11597656 27.33140625 11.10695313 28.0378125 11.09765625 28.765625 C11.07407603 30.51056098 11.03820461 32.25532295 11 34 C13.31 34.33 15.62 34.66 18 35 C18 26.75 18 18.5 18 10 C40.77 10 63.54 10 87 10 C87 35.08 87 60.16 87 86 C86.34 86 85.68 86 85 86 C85 88.64 85 91.28 85 94 C82.36 94 79.72 94 77 94 C77.0309375 95.9490625 77.0309375 95.9490625 77.0625 97.9375 C77.08399454 99.29165633 77.07148199 100.64756083 77 102 C76 103 76 103 73 103.125 C70 103 70 103 69 102 C68.92680379 99.30345146 68.90757463 96.63308542 68.9375 93.9375 C68.94201172 93.17888672 68.94652344 92.42027344 68.95117188 91.63867188 C68.9629932 89.75908129 68.98092922 87.87953101 69 86 C66.03 86 63.06 86 60 86 C60 88.64 60 91.28 60 94 C57.36 94 54.72 94 52 94 C52 99.61 52 105.22 52 111 C54.64 111 57.28 111 60 111 C60 113.97 60 116.94 60 120 C57.36 120 54.72 120 52 120 C52 122.64 52 125.28 52 128 C49.03 128 46.06 128 43 128 C43 125.36 43 122.72 43 120 C37.39 120 31.78 120 26 120 C26 122.64 26 125.28 26 128 C23.36 128 20.72 128 18 128 C18 108.53 18 89.06 18 69 C15.36 69 12.72 69 10 69 C10 74.61 10 80.22 10 86 C7.03 86 4.06 86 1 86 C1 88.64 1 91.28 1 94 C-1.64 94 -4.28 94 -7 94 C-6.979375 95.299375 -6.95875 96.59875 -6.9375 97.9375 C-6.91600546 99.29165633 -6.92851801 100.64756083 -7 102 C-8 103 -8 103 -9.84765625 103.09765625 C-11.8984375 103.06510417 -13.94921875 103.03255208 -16 103 C-16 105.64 -16 108.28 -16 111 C-21.61 111 -27.22 111 -33 111 C-32.505 115.95 -32.505 115.95 -32 121 C-36.68139254 121.02465288 -41.36274759 121.04283739 -46.04418945 121.05493164 C-47.63794614 121.05997157 -49.23169819 121.0668035 -50.82543945 121.07543945 C-53.11150253 121.08751999 -55.39750467 121.09323155 -57.68359375 121.09765625 C-58.40026718 121.10281754 -59.11694061 121.10797882 -59.85533142 121.11329651 C-61.57063672 121.11349263 -63.28581266 121.06192007 -65 121 C-66 120 -66 120 -66.11352539 116.76538086 C-66.11336631 115.33185874 -66.10767407 113.89833088 -66.09765625 112.46484375 C-66.0962413 111.71159317 -66.09482635 110.95834259 -66.09336853 110.18226624 C-66.08775376 107.7673044 -66.07519883 105.35243399 -66.0625 102.9375 C-66.0574869 101.30403779 -66.05292366 99.67057414 -66.04882812 98.03710938 C-66.03862875 94.0246757 -66.01905645 90.01244064 -66 86 C-74.58 86 -83.16 86 -92 86 C-92 83.03 -92 80.06 -92 77 C-84.08 76.67 -76.16 76.34 -68 76 C-68 71.05 -68 66.1 -68 61 C-59.09 61 -50.18 61 -41 61 C-41 58.03 -41 55.06 -41 52 C-38.36 52 -35.72 52 -33 52 C-33 49.36 -33 46.72 -33 44 C-30.03 44 -27.06 44 -24 44 C-24 35.42 -24 26.84 -24 18 C-21.69 17.67 -19.38 17.34 -17 17 C-16.67 11.72 -16.34 6.44 -16 1 C-8.08 0.505 -8.08 0.505 0 0 Z " fill="#3D392F" transform="translate(442,138)"/>
<path d="M0 0 C13.86 0 27.72 0 42 0 C42 2.97 42 5.94 42 9 C44.97 9 47.94 9 51 9 C51 11.64 51 14.28 51 17 C53.97 17 56.94 17 60 17 C60 19.64 60 22.28 60 25 C62.64 25 65.28 25 68 25 C68 36.22 68 47.44 68 59 C73.28 59 78.56 59 84 59 C84 61.97 84 64.94 84 68 C86.97 68 89.94 68 93 68 C93 65.03 93 62.06 93 59 C95.64590014 58.97315321 98.29153096 58.95323643 100.9375 58.9375 C101.69224609 58.92912109 102.44699219 58.92074219 103.22460938 58.91210938 C105.14994313 58.90347559 107.07535581 58.94775667 109 59 C110 60 110 60 110 67 C115.61 67 121.22 67 127 67 C127 64.36 127 61.72 127 59 C129.64590014 58.97315321 132.29153096 58.95323643 134.9375 58.9375 C135.69224609 58.92912109 136.44699219 58.92074219 137.22460938 58.91210938 C139.14994313 58.90347559 141.07535581 58.94775667 143 59 C144 60 144 60 144.09765625 61.84765625 C144.06510417 63.8984375 144.03255208 65.94921875 144 68 C145.134375 67.91621094 146.26875 67.83242187 147.4375 67.74609375 C148.95830622 67.64282913 150.47914119 67.53998716 152 67.4375 C152.74378906 67.38142578 153.48757813 67.32535156 154.25390625 67.26757812 C154.99511719 67.21923828 155.73632812 67.17089844 156.5 67.12109375 C157.50546875 67.05039673 157.50546875 67.05039673 158.53125 66.97827148 C162.03727792 67.00912952 165.52091132 67.56511391 169 68 C169 73.94 169 79.88 169 86 C166.36 85.67 163.72 85.34 161 85 C161 87.64 161 90.28 161 93 C158.36 93.33 155.72 93.66 153 94 C152.67 96.31 152.34 98.62 152 101 C149.36 101 146.72 101 144 101 C144 106.61 144 112.22 144 118 C138.39 118 132.78 118 127 118 C127 115.36 127 112.72 127 110 C129.64 110 132.28 110 135 110 C135 107.03 135 104.06 135 101 C121.47 101.33 107.94 101.66 94 102 C93.67 104.64 93.34 107.28 93 110 C95.97 110 98.94 110 102 110 C102 112.64 102 115.28 102 118 C107.28 118 112.56 118 118 118 C118 126.58 118 135.16 118 144 C120.97 144 123.94 144 127 144 C127 146.64 127 149.28 127 152 C129.97 152 132.94 152 136 152 C136 154.64 136 157.28 136 160 C138.64 160 141.28 160 144 160 C144 162.97 144 165.94 144 169 C146.64 169 149.28 169 152 169 C152 174.61 152 180.22 152 186 C146.39 186 140.78 186 135 186 C135 183.03 135 180.06 135 177 C132.36 177 129.72 177 127 177 C127 179.97 127 182.94 127 186 C110.17 186 93.34 186 76 186 C76 180.39 76 174.78 76 169 C78.97 169 81.94 169 85 169 C85 166.03 85 163.06 85 160 C87.64 160 90.28 160 93 160 C93 157.36 93 154.72 93 152 C95.97 152 98.94 152 102 152 C102 149.36 102 146.72 102 144 C104.64 144 107.28 144 110 144 C110 138.39 110 132.78 110 127 C107.03 127 104.06 127 101 127 C101 124.36 101 121.72 101 119 C95.39 119 89.78 119 84 119 C84 113.06 84 107.12 84 101 C81.36 101 78.72 101 76 101 C76 95.39 76 89.78 76 84 C68.08 84.495 68.08 84.495 60 85 C60 79.39 60 73.78 60 68 C57.03 68 54.06 68 51 68 C51 70.64 51 73.28 51 76 C34.17 76 17.34 76 0 76 C0 73.36 0 70.72 0 68 C-2.64 68 -5.28 68 -8 68 C-8 65.03 -8 62.06 -8 59 C-10.64 59 -13.28 59 -16 59 C-16 47.78 -16 36.56 -16 25 C-13.36 25 -10.72 25 -8 25 C-8 19.72 -8 14.44 -8 9 C-5.36 9 -2.72 9 0 9 C0 6.03 0 3.06 0 0 Z " fill="#75644E" transform="translate(156,114)"/>
<path d="M0 0 C62.7 0 125.4 0 190 0 C190 1.32 190 2.64 190 4 C184.39 4 178.78 4 173 4 C173 6.31 173 8.62 173 11 C169.36804504 13.42130331 167.61650652 13.21022785 163.3125 13.125 C162.13300781 13.10695313 160.95351562 13.08890625 159.73828125 13.0703125 C158.83464844 13.04710937 157.93101562 13.02390625 157 13 C156.67 15.64 156.34 18.28 156 21 C147.42 21 138.84 21 130 21 C130 23.31 130 25.62 130 28 C128 30 128 30 124.9609375 30.1953125 C123.77757813 30.17210938 122.59421875 30.14890625 121.375 30.125 C120.18648438 30.10695313 118.99796875 30.08890625 117.7734375 30.0703125 C116.85820313 30.04710938 115.94296875 30.02390625 115 30 C114.67 32.64 114.34 35.28 114 38 C108.06 38 102.12 38 96 38 C96 40.64 96 43.28 96 46 C91.05 46.33 86.1 46.66 81 47 C80.67 49.64 80.34 52.28 80 55 C74.72 55 69.44 55 64 55 C64 57.64 64 60.28 64 63 C63 64 63 64 60.59155273 64.11352539 C59.54942627 64.10828857 58.5072998 64.10305176 57.43359375 64.09765625 C56.30888672 64.09443359 55.18417969 64.09121094 54.02539062 64.08789062 C52.84138672 64.07951172 51.65738281 64.07113281 50.4375 64.0625 C49.24962891 64.05798828 48.06175781 64.05347656 46.83789062 64.04882812 C43.89187774 64.03699675 40.94596319 64.02051287 38 64 C38 66.64 38 69.28 38 72 C32.39 72 26.78 72 21 72 C21 74.64 21 77.28 21 80 C15.39 80 9.78 80 4 80 C4 82.64 4 85.28 4 88 C2.02 88.495 2.02 88.495 0 89 C0 59.63 0 30.26 0 0 Z " fill="#BE9262" transform="translate(0,0)"/>
<path d="M0 0 C2.64 0.33 5.28 0.66 8 1 C8 12.22 8 23.44 8 35 C5.03 35 2.06 35 -1 35 C-1 37.64 -1 40.28 -1 43 C-3.64 43 -6.28 43 -9 43 C-9 45.97 -9 48.94 -9 52 C-17.58 52.33 -26.16 52.66 -35 53 C-34.979375 55.289375 -34.95875 57.57875 -34.9375 59.9375 C-34.91629132 62.29166332 -34.92728259 64.64686445 -35 67 C-36 68 -36 68 -38.31665039 68.11352539 C-39.31688232 68.10828857 -40.31711426 68.10305176 -41.34765625 68.09765625 C-42.42724609 68.09443359 -43.50683594 68.09121094 -44.61914062 68.08789062 C-45.75544922 68.07951172 -46.89175781 68.07113281 -48.0625 68.0625 C-49.20267578 68.05798828 -50.34285156 68.05347656 -51.51757812 68.04882812 C-54.34510351 68.03699747 -57.1725264 68.0205141 -60 68 C-60 70.97 -60 73.94 -60 77 C-57.03 77 -54.06 77 -51 77 C-50.97522943 82.17781223 -50.95710653 87.35558975 -50.94506836 92.53344727 C-50.9400483 94.29387005 -50.9332309 96.05428868 -50.92456055 97.81469727 C-50.91239297 100.34913154 -50.90674834 102.88351054 -50.90234375 105.41796875 C-50.89718246 106.20149216 -50.89202118 106.98501556 -50.88670349 107.7922821 C-50.88630934 111.65591139 -51.0555724 115.245165 -52 119 C-54.64 119 -57.28 119 -60 119 C-60 121.64 -60 124.28 -60 127 C-62.64 127 -65.28 127 -68 127 C-68 129.97 -68 132.94 -68 136 C-73.61 136 -79.22 136 -85 136 C-85 138.64 -85 141.28 -85 144 C-89.95 144 -94.9 144 -100 144 C-101 139 -101 139 -101 136 C-103.97 136 -106.94 136 -110 136 C-110 133.03 -110 130.06 -110 127 C-112.64 127 -115.28 127 -118 127 C-118 124.36 -118 121.72 -118 119 C-120.97 119 -123.94 119 -127 119 C-127 116.36 -127 113.72 -127 111 C-129.97 111 -132.94 111 -136 111 C-136 102.42 -136 93.84 -136 85 C-141.28 85 -146.56 85 -152 85 C-152 82.36 -152 79.72 -152 77 C-154.97 77 -157.94 77 -161 77 C-161.09765625 70.84765625 -161.09765625 70.84765625 -161 69 C-160 68 -160 68 -156.12280273 67.88647461 C-154.39305833 67.88663379 -152.66330919 67.89233151 -150.93359375 67.90234375 C-150.02497086 67.9037587 -149.11634796 67.90517365 -148.18019104 67.90663147 C-145.26592779 67.91224807 -142.35174019 67.92480335 -139.4375 67.9375 C-137.46679798 67.94251286 -135.49609476 67.94707614 -133.52539062 67.95117188 C-128.68356441 67.96222289 -123.84179505 67.97949862 -119 68 C-119 70.97 -119 73.94 -119 77 C-121.64 77 -124.28 77 -127 77 C-127 79.64 -127 82.28 -127 85 C-121.39 85 -115.78 85 -110 85 C-110 79.39 -110 73.78 -110 68 C-107.36 68 -104.72 68 -102 68 C-102.020625 66.865625 -102.04125 65.73125 -102.0625 64.5625 C-102 61 -102 61 -101 60 C-98.32941149 59.85884839 -95.67567762 59.95752893 -93 60 C-93 57.36 -93 54.72 -93 52 C-90.69 52 -88.38 52 -86 52 C-85.67 46.39 -85.34 40.78 -85 35 C-82.03 35 -79.06 35 -76 35 C-76 37.64 -76 40.28 -76 43 C-59.5 43 -43 43 -26 43 C-26 40.36 -26 37.72 -26 35 C-20.39 35 -14.78 35 -9 35 C-9 32.03 -9 29.06 -9 26 C-6.03 26 -3.06 26 0 26 C0 17.42 0 8.84 0 0 Z " fill="#928B75" transform="translate(410,147)"/>
<path d="M0 0 C2.19797403 4.39594806 2.10073202 5.99267976 1.625 10.75 C1.51414062 11.92046875 1.40328125 13.0909375 1.2890625 14.296875 C1.19367188 15.18890625 1.09828125 16.0809375 1 17 C2.918125 16.938125 2.918125 16.938125 4.875 16.875 C7.0546875 16.8046875 7.0546875 16.8046875 9 17 C11 19 11 19 11.1953125 22.4765625 C11.18201493 23.85950968 11.15816232 25.24238654 11.125 26.625 C11.11597656 27.33140625 11.10695313 28.0378125 11.09765625 28.765625 C11.07407603 30.51056098 11.03820461 32.25532295 11 34 C13.31 34.33 15.62 34.66 18 35 C18 46.22 18 57.44 18 69 C15.36 69 12.72 69 10 69 C10 74.61 10 80.22 10 86 C7.03 86 4.06 86 1 86 C1 88.64 1 91.28 1 94 C-1.64 94 -4.28 94 -7 94 C-6.979375 95.299375 -6.95875 96.59875 -6.9375 97.9375 C-6.91600546 99.29165633 -6.92851801 100.64756083 -7 102 C-8 103 -8 103 -9.84765625 103.09765625 C-11.8984375 103.06510417 -13.94921875 103.03255208 -16 103 C-16 105.64 -16 108.28 -16 111 C-21.61 111 -27.22 111 -33 111 C-32.505 115.95 -32.505 115.95 -32 121 C-36.68139254 121.02465288 -41.36274759 121.04283739 -46.04418945 121.05493164 C-47.63794614 121.05997157 -49.23169819 121.0668035 -50.82543945 121.07543945 C-53.11150253 121.08751999 -55.39750467 121.09323155 -57.68359375 121.09765625 C-58.40026718 121.10281754 -59.11694061 121.10797882 -59.85533142 121.11329651 C-61.57063672 121.11349263 -63.28581266 121.06192007 -65 121 C-66 120 -66 120 -66.11352539 116.76538086 C-66.11336631 115.33185874 -66.10767407 113.89833088 -66.09765625 112.46484375 C-66.0962413 111.71159317 -66.09482635 110.95834259 -66.09336853 110.18226624 C-66.08775376 107.7673044 -66.07519883 105.35243399 -66.0625 102.9375 C-66.0574869 101.30403779 -66.05292366 99.67057414 -66.04882812 98.03710938 C-66.03862875 94.0246757 -66.01905645 90.01244064 -66 86 C-74.58 86 -83.16 86 -92 86 C-92 83.03 -92 80.06 -92 77 C-84.08 76.67 -76.16 76.34 -68 76 C-68 71.05 -68 66.1 -68 61 C-59.09 61 -50.18 61 -41 61 C-41 58.03 -41 55.06 -41 52 C-38.36 52 -35.72 52 -33 52 C-33 49.36 -33 46.72 -33 44 C-30.03 44 -27.06 44 -24 44 C-24 35.42 -24 26.84 -24 18 C-21.69 17.67 -19.38 17.34 -17 17 C-16.67 11.72 -16.34 6.44 -16 1 C-8.08 0.505 -8.08 0.505 0 0 Z " fill="#555142" transform="translate(442,138)"/>
<path d="M0 0 C13.86 0 27.72 0 42 0 C42 2.97 42 5.94 42 9 C44.97 9 47.94 9 51 9 C51 11.64 51 14.28 51 17 C53.97 17 56.94 17 60 17 C60 19.64 60 22.28 60 25 C62.64 25 65.28 25 68 25 C68 38.86 68 52.72 68 67 C62.39 67 56.78 67 51 67 C51 69.97 51 72.94 51 76 C34.17 76 17.34 76 0 76 C0 73.36 0 70.72 0 68 C-2.64 68 -5.28 68 -8 68 C-8 65.03 -8 62.06 -8 59 C-10.64 59 -13.28 59 -16 59 C-16 47.78 -16 36.56 -16 25 C-13.36 25 -10.72 25 -8 25 C-8 19.72 -8 14.44 -8 9 C-5.36 9 -2.72 9 0 9 C0 6.03 0 3.06 0 0 Z " fill="#2E2D24" transform="translate(156,114)"/>
<path d="M0 0 C8.25 0 16.5 0 25 0 C25 2.97 25 5.94 25 9 C27.64 9 30.28 9 33 9 C33 11.64 33 14.28 33 17 C35.97 17 38.94 17 42 17 C42 19.97 42 22.94 42 26 C44.64 26 47.28 26 50 26 C50 36.89 50 47.78 50 59 C47.36 59 44.72 59 42 59 C42 61.97 42 64.94 42 68 C36.39 68 30.78 68 25 68 C25 70.64 25 73.28 25 76 C8.5 76 -8 76 -25 76 C-25 73.36 -25 70.72 -25 68 C-27.97 68 -30.94 68 -34 68 C-34 56.78 -34 45.56 -34 34 C-31.03 34 -28.06 34 -25 34 C-25 28.39 -25 22.78 -25 17 C-22.36 17 -19.72 17 -17 17 C-17 14.36 -17 11.72 -17 9 C-11.39 9 -5.78 9 0 9 C0 6.03 0 3.06 0 0 Z " fill="#2D2C24" transform="translate(359,114)"/>
<path d="M0 0 C44.55 0 89.1 0 135 0 C135 1.32 135 2.64 135 4 C129.39 4 123.78 4 118 4 C118 6.97 118 9.94 118 13 C112.39 13 106.78 13 101 13 C101 15.64 101 18.28 101 21 C96.05 21.33 91.1 21.66 86 22 C85.67 24.64 85.34 27.28 85 30 C79.39 30 73.78 30 68 30 C68 32.31 68 34.62 68 37 C67 38 67 38 63.83984375 38.09765625 C62.55207031 38.08605469 61.26429688 38.07445312 59.9375 38.0625 C58.64714844 38.05347656 57.35679687 38.04445312 56.02734375 38.03515625 C55.02832031 38.02355469 54.02929688 38.01195312 53 38 C52.71125 39.11375 52.4225 40.2275 52.125 41.375 C51 45 51 45 49 47 C46.67724823 47.40047444 44.34260643 47.7397104 42 48 C41.505 43.545 41.505 43.545 41 39 C35.72 38.67 30.44 38.34 25 38 C25 35.36 25 32.72 25 30 C22.36 30 19.72 30 17 30 C17 24.39 17 18.78 17 13 C11.72 12.67 6.44 12.34 1 12 C0 8 0 8 0 0 Z " fill="#BE9262" transform="translate(367,0)"/>
<path d="M0 0 C3.3 0 6.6 0 10 0 C10 25.08 10 50.16 10 76 C9.34 76 8.68 76 8 76 C8 78.64 8 81.28 8 84 C5.36 84 2.72 84 0 84 C0.020625 85.299375 0.04125 86.59875 0.0625 87.9375 C0.08399454 89.29165633 0.07148199 90.64756083 0 92 C-1 93 -1 93 -4 93.125 C-7 93 -7 93 -8 92 C-8.07319621 89.30345146 -8.09242537 86.63308542 -8.0625 83.9375 C-8.05798828 83.17888672 -8.05347656 82.42027344 -8.04882812 81.63867188 C-8.0370068 79.75908129 -8.01907078 77.87953101 -8 76 C-10.97 76 -13.94 76 -17 76 C-17 78.64 -17 81.28 -17 84 C-19.64 84 -22.28 84 -25 84 C-25 89.61 -25 95.22 -25 101 C-22.36 101 -19.72 101 -17 101 C-17 103.97 -17 106.94 -17 110 C-19.64 110 -22.28 110 -25 110 C-25 112.64 -25 115.28 -25 118 C-27.97 118 -30.94 118 -34 118 C-34 115.36 -34 112.72 -34 110 C-39.28 110 -44.56 110 -50 110 C-50 109.67 -50 109.34 -50 109 C-47.36 109 -44.72 109 -42 109 C-42 100.75 -42 92.5 -42 84 C-39.36 84 -36.72 84 -34 84 C-33.67 81.36 -33.34 78.72 -33 76 C-30.36 76 -27.72 76 -25 76 C-25.33 70.72 -25.66 65.44 -26 60 C-29.465 59.505 -29.465 59.505 -33 59 C-33 56.69 -33 54.38 -33 52 C-30.69 51.34 -28.38 50.68 -26 50 C-26.02320313 48.94039062 -26.04640625 47.88078125 -26.0703125 46.7890625 C-26.08906944 45.4010487 -26.10726972 44.0130273 -26.125 42.625 C-26.14175781 41.92632812 -26.15851563 41.22765625 -26.17578125 40.5078125 C-26.19344267 38.67102514 -26.10303261 36.83398037 -26 35 C-23.53721199 32.53721199 -21.29323018 32.00228745 -18 31 C-17.67 27.37 -17.34 23.74 -17 20 C-16.34 20 -15.68 20 -15 20 C-15 19.01 -15 18.02 -15 17 C-13.02 16.67 -11.04 16.34 -9 16 C-8.855625 14.865625 -8.71125 13.73125 -8.5625 12.5625 C-8 9 -8 9 -7 8 C-4.66702567 7.95907063 -2.33294775 7.95758277 0 8 C0 5.36 0 2.72 0 0 Z " fill="#535041" transform="translate(519,148)"/>
<path d="M0 0 C2.64 0 5.28 0 8 0 C8 5.61 8 11.22 8 17 C10.64 17 13.28 17 16 17 C16 22.94 16 28.88 16 35 C21.61 35 27.22 35 33 35 C33 37.64 33 40.28 33 43 C35.97 43 38.94 43 42 43 C42 48.28 42 53.56 42 59 C27.97553575 59.93496428 14.05311765 60.10700343 0 60 C0 65.28 0 70.56 0 76 C-8.58 76 -17.16 76 -26 76 C-26 65.875 -26 65.875 -24 60 C-27.3 60 -30.6 60 -34 60 C-34 54.39 -34 48.78 -34 43 C-31.03 43 -28.06 43 -25 43 C-25 37.39 -25 31.78 -25 26 C-22.36 26 -19.72 26 -17 26 C-17.020625 24.700625 -17.04125 23.40125 -17.0625 22.0625 C-17.08399454 20.70834367 -17.07148199 19.35243917 -17 18 C-16 17 -16 17 -12.4375 16.9375 C-11.303125 16.958125 -10.16875 16.97875 -9 17 C-9.0309375 15.2984375 -9.0309375 15.2984375 -9.0625 13.5625 C-9 10 -9 10 -8 9 C-5.32941149 8.85884839 -2.67567762 8.95752893 0 9 C0 6.03 0 3.06 0 0 Z " fill="#B9B096" transform="translate(224,198)"/>
<path d="M0 0 C0.99 0.33 1.98 0.66 3 1 C3.1693475 3.99986993 3.33554793 6.99986092 3.5 10 C3.54769531 10.83917969 3.59539062 11.67835938 3.64453125 12.54296875 C3.92462373 17.70467304 4.0478635 22.83074247 4 28 C4.763125 27.814375 5.52625 27.62875 6.3125 27.4375 C9 27 9 27 12 28 C12 30.64 12 33.28 12 36 C9.03 36 6.06 36 3 36 C3 38.64 3 41.28 3 44 C5.31 44 7.62 44 10 44 C10 49.28 10 54.56 10 60 C6.535 60.495 6.535 60.495 3 61 C2.67 69.25 2.34 77.5 2 86 C5.465 86.495 5.465 86.495 9 87 C10.25664978 89.90600261 11 91.79604584 11 95 C13.64 95 16.28 95 19 95 C19 99.95 19 104.9 19 110 C15.535 110.495 15.535 110.495 12 111 C11 110 11 110 10.9375 106.4375 C10.958125 105.303125 10.97875 104.16875 11 103 C8.36 103 5.72 103 3 103 C3 105.97 3 108.94 3 112 C0.03 112 -2.94 112 -6 112 C-6 106.39 -6 100.78 -6 95 C-11.61 95 -17.22 95 -23 95 C-23 75.53 -23 56.06 -23 36 C-20.03 36 -17.06 36 -14 36 C-14 27.42 -14 18.84 -14 10 C-11.36 10 -8.72 10 -6 10 C-6 7.36 -6 4.72 -6 2 C-4.02 2 -2.04 2 0 2 C0 1.34 0 0.68 0 0 Z " fill="#444136" transform="translate(103,188)"/>
<path d="M0 0 C2.64 0.33 5.28 0.66 8 1 C8 6.61 8 12.22 8 18 C10.97 18 13.94 18 17 18 C17 20.64 17 23.28 17 26 C19.97 26 22.94 26 26 26 C26 28.64 26 31.28 26 34 C28.64 34 31.28 34 34 34 C34 36.97 34 39.94 34 43 C36.64 43 39.28 43 42 43 C42 48.61 42 54.22 42 60 C36.39 60 30.78 60 25 60 C25 57.03 25 54.06 25 51 C22.36 51 19.72 51 17 51 C17 53.97 17 56.94 17 60 C0.17 60 -16.66 60 -34 60 C-34 54.39 -34 48.78 -34 43 C-31.03 43 -28.06 43 -25 43 C-25 40.03 -25 37.06 -25 34 C-22.36 34 -19.72 34 -17 34 C-17 31.36 -17 28.72 -17 26 C-14.03 26 -11.06 26 -8 26 C-8 23.36 -8 20.72 -8 18 C-5.36 18 -2.72 18 0 18 C0 12.06 0 6.12 0 0 Z " fill="#2B271F" transform="translate(266,240)"/>
<path d="M0 0 C2.64 0 5.28 0 8 0 C8.81060941 6.37770645 9.14132528 12.5790922 9.12025452 19.00379944 C9.12110894 19.97112407 9.12196337 20.93844869 9.12284368 21.93508619 C9.12448202 25.15474142 9.11900421 28.37434377 9.11352539 31.59399414 C9.11324314 33.91056314 9.113402 36.22713223 9.1139679 38.54370117 C9.11425438 44.81776938 9.10838166 51.0918184 9.10139394 57.36588216 C9.09513566 63.92820084 9.09455464 70.49051998 9.09336853 77.05284119 C9.09078177 88.0624932 9.08437228 99.07213851 9.07543945 110.08178711 C9.06625096 121.4183753 9.05917716 132.75496157 9.05493164 144.09155273 C9.05466892 144.79113218 9.05440619 145.49071163 9.05413551 146.21149046 C9.05283041 149.72131148 9.05156671 153.23113252 9.05032361 156.74095356 C9.03996828 185.82730694 9.02229041 214.91365337 9 244 C5.7 244 2.4 244 -1 244 C-1.02282537 214.21558701 -1.04051628 184.43117431 -1.05106533 154.64675445 C-1.052316 151.12835386 -1.05361032 147.60995329 -1.05493164 144.09155273 C-1.05519395 143.39111906 -1.05545626 142.69068538 -1.05572652 141.96902644 C-1.06007474 130.63604969 -1.06795763 119.30307802 -1.0771528 107.97010428 C-1.08651291 96.33658337 -1.09198578 84.70306542 -1.09408849 73.06954092 C-1.09539194 66.53722633 -1.09845471 60.00492327 -1.10573006 53.47261238 C-1.11252414 47.32250675 -1.11461004 41.17241738 -1.11310768 35.02230835 C-1.11338248 32.76689503 -1.11536748 30.51148116 -1.11920547 28.25607109 C-1.12419563 25.17196068 -1.12297867 22.08791132 -1.12025452 19.00379944 C-1.12462378 17.67156352 -1.12462378 17.67156352 -1.12908131 16.31241375 C-1.11596283 10.80082652 -0.69508733 5.4688027 0 0 Z " fill="#6083CE" transform="translate(283,291)"/>
<path d="M0 0 C2.64 0 5.28 0 8 0 C8 25.08 8 50.16 8 76 C5.03 76.99 5.03 76.99 2 78 C0.69951159 80.60097682 0.43528578 83.13955062 0 86 C-2.97 85.67 -5.94 85.34 -9 85 C-9 82.03 -9 79.06 -9 76 C-11.64 76 -14.28 76 -17 76 C-17 73.36 -17 70.72 -17 68 C-14.36 68 -11.72 68 -9 68 C-9 65.03 -9 62.06 -9 59 C-14.61 59 -20.22 59 -26 59 C-26 56.03 -26 53.06 -26 50 C-31.28 50 -36.56 50 -42 50 C-42 47.36 -42 44.72 -42 42 C-36.72 42 -31.44 42 -26 42 C-26 39.36 -26 36.72 -26 34 C-23.36 33.67 -20.72 33.34 -18 33 C-17.67 30.36 -17.34 27.72 -17 25 C-14.36 25 -11.72 25 -9 25 C-9 22.36 -9 19.72 -9 17 C-6.03 17 -3.06 17 0 17 C0 11.39 0 5.78 0 0 Z " fill="#A19B82" transform="translate(452,207)"/>
<path d="M0 0 C5.61 0 11.22 0 17 0 C17 2.64 17 5.28 17 8 C19.64 8 22.28 8 25 8 C25.09765625 14.15234375 25.09765625 14.15234375 25 16 C24 17 24 17 20.4375 17.0625 C19.303125 17.041875 18.16875 17.02125 17 17 C17 19.64 17 22.28 17 25 C14.36 25 11.72 25 9 25 C9 30.61 9 36.22 9 42 C6.03 42 3.06 42 0 42 C0 44.97 0 47.94 0 51 C-5.61 51 -11.22 51 -17 51 C-17.33 48.03 -17.66 45.06 -18 42 C-21.465 42.495 -21.465 42.495 -25 43 C-25.19436491 40.54203147 -25.3807742 38.08390706 -25.5625 35.625 C-25.64661133 34.57699219 -25.64661133 34.57699219 -25.73242188 33.5078125 C-26.11328125 28.2265625 -26.11328125 28.2265625 -25 26 C-26.65 26 -28.3 26 -30 26 C-30 25.01 -30 24.02 -30 23 C-31.32 23.33 -32.64 23.66 -34 24 C-34.144375 23.05125 -34.28875 22.1025 -34.4375 21.125 C-34.82935399 18.1065506 -34.82935399 18.1065506 -36 16 C-35.34 16 -34.68 16 -34 16 C-34 13.36 -34 10.72 -34 8 C-22.78 8 -11.56 8 0 8 C0 5.36 0 2.72 0 0 Z " fill="#857C68" transform="translate(460,72)"/>
<path d="M0 0 C0 0.33 0 0.66 0 1 C-2.64 1 -5.28 1 -8 1 C-8 3.64 -8 6.28 -8 9 C-10.97 9 -13.94 9 -17 9 C-17 11.64 -17 14.28 -17 17 C-19.64 17 -22.28 17 -25 17 C-25 19.97 -25 22.94 -25 26 C-26.14597656 26.06058594 -27.29195313 26.12117188 -28.47265625 26.18359375 C-30.00261297 26.26806989 -31.53256041 26.35271427 -33.0625 26.4375 C-33.81466797 26.47681641 -34.56683594 26.51613281 -35.34179688 26.55664062 C-39.94698741 26.81580719 -44.44366724 27.2799421 -49 28 C-49.33 29.98 -49.66 31.96 -50 34 C-55.28 34 -60.56 34 -66 34 C-66 28 -66 28 -65 26 C-63.02 26 -61.04 26 -59 26 C-59 23.36 -59 20.72 -59 18 C-67.415 18.495 -67.415 18.495 -76 19 C-76 15.7 -76 12.4 -76 9 C-81.61 9 -87.22 9 -93 9 C-93 6.36 -93 3.72 -93 1 C-84.09 1 -75.18 1 -66 1 C-66 2.98 -66 4.96 -66 7 C-66.33 7.33 -66.66 7.66 -67 8 C-67.33 10.97 -67.66 13.94 -68 17 C-59.42 17 -50.84 17 -42 17 C-42 11.72 -42 6.44 -42 1 C-27.98961939 0.33622562 -14.02685187 -0.15939604 0 0 Z " fill="#8B8571" transform="translate(266,257)"/>
<path d="M0 0 C16.83 0 33.66 0 51 0 C51 2.64 51 5.28 51 8 C56.61 8 62.22 8 68 8 C68 13.61 68 19.22 68 25 C70.64 25 73.28 25 76 25 C76 38.86 76 52.72 76 67 C73.36 67 70.72 67 68 67 C68 55.78 68 44.56 68 33 C65.36 33 62.72 33 60 33 C60 30.36 60 27.72 60 25 C57.03 25 54.06 25 51 25 C51 22.36 51 19.72 51 17 C48.03 17 45.06 17 42 17 C42 14.03 42 11.06 42 8 C28.14 8 14.28 8 0 8 C0 5.36 0 2.72 0 0 Z " fill="#B7AF98" transform="translate(156,106)"/>
<path d="M0 0 C14.19 0 28.38 0 43 0 C42.67 2.64 42.34 5.28 42 8 C33.75 8 25.5 8 17 8 C17 10.97 17 13.94 17 17 C11.39 17 5.78 17 0 17 C0 19.64 0 22.28 0 25 C-2.64 25 -5.28 25 -8 25 C-8 30.61 -8 36.22 -8 42 C-10.97 42 -13.94 42 -17 42 C-17 50.25 -17 58.5 -17 67 C-19.64 67 -22.28 67 -25 67 C-25 52.15 -25 37.3 -25 22 C-24.67 22.99 -24.34 23.98 -24 25 C-19.38 25 -14.76 25 -10 25 C-9.67 19.39 -9.34 13.78 -9 8 C-6.03 8 -3.06 8 0 8 C0 5.36 0 2.72 0 0 Z " fill="#B6AF95" transform="translate(342,106)"/>
<path d="M0 0 C11.22 0 22.44 0 34 0 C34 2.64 34 5.28 34 8 C42.25 8 50.5 8 59 8 C60 15 60 15 59 17 C56.45058627 17.31241371 53.99638487 17.51303421 51.4375 17.625 C50.72658203 17.66367188 50.01566406 17.70234375 49.28320312 17.7421875 C47.52257575 17.83671783 45.76132272 17.91945817 44 18 C44.061875 18.928125 44.12375 19.85625 44.1875 20.8125 C44 24 44 24 42.94921875 25.86328125 C39.93146892 27.62313135 37.26137995 27.2824233 33.8125 27.1875 C31.90404297 27.14689453 31.90404297 27.14689453 29.95703125 27.10546875 C28.49330078 27.05326172 28.49330078 27.05326172 27 27 C26.67 29.31 26.34 31.62 26 34 C23.03 34 20.06 34 17 34 C17 31.03 17 28.06 17 25 C14.36 25 11.72 25 9 25 C9 19.39 9 13.78 9 8 C6.03 8 3.06 8 0 8 C0 5.36 0 2.72 0 0 Z " fill="#575141" transform="translate(114,72)"/>
<path d="M0 0 C2.64 0 5.28 0 8 0 C8.81060941 6.37770645 9.14132528 12.5790922 9.12025452 19.00379944 C9.12110894 19.97112407 9.12196337 20.93844869 9.12284368 21.93508619 C9.12448202 25.15474142 9.11900421 28.37434377 9.11352539 31.59399414 C9.11324314 33.91056314 9.113402 36.22713223 9.1139679 38.54370117 C9.11425438 44.81776938 9.10838166 51.0918184 9.10139394 57.36588216 C9.09513566 63.92820084 9.09455464 70.49051998 9.09336853 77.05284119 C9.09078177 88.0624932 9.08437228 99.07213851 9.07543945 110.08178711 C9.06625096 121.4183753 9.05917716 132.75496157 9.05493164 144.09155273 C9.05466892 144.79113218 9.05440619 145.49071163 9.05413551 146.21149046 C9.05283041 149.72131148 9.05156671 153.23113252 9.05032361 156.74095356 C9.03996828 185.82730694 9.02229041 214.91365337 9 244 C8.34 244 7.68 244 7 244 C7 164.14 7 84.28 7 2 C5.35 2.33 3.7 2.66 2 3 C1.67 82.53 1.34 162.06 1 244 C0.34 244 -0.32 244 -1 244 C-1.02282537 214.21558701 -1.04051628 184.43117431 -1.05106533 154.64675445 C-1.052316 151.12835386 -1.05361032 147.60995329 -1.05493164 144.09155273 C-1.05519395 143.39111906 -1.05545626 142.69068538 -1.05572652 141.96902644 C-1.06007474 130.63604969 -1.06795763 119.30307802 -1.0771528 107.97010428 C-1.08651291 96.33658337 -1.09198578 84.70306542 -1.09408849 73.06954092 C-1.09539194 66.53722633 -1.09845471 60.00492327 -1.10573006 53.47261238 C-1.11252414 47.32250675 -1.11461004 41.17241738 -1.11310768 35.02230835 C-1.11338248 32.76689503 -1.11536748 30.51148116 -1.11920547 28.25607109 C-1.12419563 25.17196068 -1.12297867 22.08791132 -1.12025452 19.00379944 C-1.12462378 17.67156352 -1.12462378 17.67156352 -1.12908131 16.31241375 C-1.11596283 10.80082652 -0.69508733 5.4688027 0 0 Z " fill="#6F7DA0" transform="translate(283,291)"/>
<path d="M0 0 C19.14 0 38.28 0 58 0 C58 2.64 58 5.28 58 8 C55.36 8 52.72 8 50 8 C50 10.97 50 13.94 50 17 C44.39 17 38.78 17 33 17 C33 19.64 33 22.28 33 25 C28.05 25 23.1 25 18 25 C17 20 17 20 17 17 C14.03 17 11.06 17 8 17 C8 14.03 8 11.06 8 8 C5.36 8 2.72 8 0 8 C0 5.36 0 2.72 0 0 Z " fill="#8C8572" transform="translate(292,266)"/>
<path d="M0 0 C5.28 0 10.56 0 16 0 C17 6 17 6 16 8 C21.94 8 27.88 8 34 8 C34 10.64 34 13.28 34 16 C19.98878754 16.99069179 6.04286047 17.10692533 -8 17 C-8 22.28 -8 27.56 -8 33 C-16.58 33 -25.16 33 -34 33 C-34 22.875 -34 22.875 -32 17 C-35.3 17 -38.6 17 -42 17 C-42 16.67 -42 16.34 -42 16 C-30.78 16 -19.56 16 -8 16 C-8 13.36 -8 10.72 -8 8 C-7 7 -7 7 -4.5625 6.8125 C-2 7 -2 7 0 9 C0 6.03 0 3.06 0 0 Z " fill="#A39C83" transform="translate(232,241)"/>
<path d="M0 0 C2.64 0.33 5.28 0.66 8 1 C8 6.61 8 12.22 8 18 C10.97 18 13.94 18 17 18 C17 20.64 17 23.28 17 26 C19.64 26 22.28 26 25 26 C25 28.64 25 31.28 25 34 C22.36 34 19.72 34 17 34 C17 36.97 17 39.94 17 43 C8.75 43 0.5 43 -8 43 C-8.33 40.36 -8.66 37.72 -9 35 C-10.134375 34.855625 -11.26875 34.71125 -12.4375 34.5625 C-16 34 -16 34 -17 33 C-17.04092937 30.66702567 -17.04241723 28.33294775 -17 26 C-14.03 26 -11.06 26 -8 26 C-8 23.36 -8 20.72 -8 18 C-5.36 18 -2.72 18 0 18 C0 12.06 0 6.12 0 0 Z " fill="#27241C" transform="translate(266,240)"/>
<path d="M0 0 C2.19797403 4.39594806 2.10073202 5.99267976 1.625 10.75 C1.45871094 12.50570312 1.45871094 12.50570312 1.2890625 14.296875 C1.14597656 15.63492188 1.14597656 15.63492188 1 17 C2.918125 16.938125 2.918125 16.938125 4.875 16.875 C7.0546875 16.8046875 7.0546875 16.8046875 9 17 C11 19 11 19 11.1953125 22.4765625 C11.18201493 23.85950968 11.15816232 25.24238654 11.125 26.625 C11.11597656 27.33140625 11.10695313 28.0378125 11.09765625 28.765625 C11.07407603 30.51056098 11.03820461 32.25532295 11 34 C12.32 34.33 13.64 34.66 15 35 C13.02 35 11.04 35 9 35 C8.67 29.72 8.34 24.44 8 19 C5.69 19 3.38 19 1 19 C1.05220703 20.48113281 1.05220703 20.48113281 1.10546875 21.9921875 C1.13253906 23.27351563 1.15960938 24.55484375 1.1875 25.875 C1.23970703 27.78925781 1.23970703 27.78925781 1.29296875 29.7421875 C1.19628906 30.81726563 1.09960938 31.89234375 1 33 C-2.7367843 35.49118953 -4.74451819 35.2065226 -9.1875 35.125 C-10.45980469 35.10695312 -11.73210937 35.08890625 -13.04296875 35.0703125 C-14.01878906 35.04710937 -14.99460937 35.02390625 -16 35 C-16 37.97 -16 40.94 -16 44 C-18.64 44 -21.28 44 -24 44 C-24 35.42 -24 26.84 -24 18 C-20.535 17.505 -20.535 17.505 -17 17 C-16.67 11.72 -16.34 6.44 -16 1 C-8.08 0.505 -8.08 0.505 0 0 Z " fill="#6C6755" transform="translate(442,138)"/>
<path d="M0 0 C2.64 0.33 5.28 0.66 8 1 C8 12.22 8 23.44 8 35 C5.03 35 2.06 35 -1 35 C-1 37.64 -1 40.28 -1 43 C-3.64 43 -6.28 43 -9 43 C-9 45.64 -9 48.28 -9 51 C-17.25 51 -25.5 51 -34 51 C-34 48.36 -34 45.72 -34 43 C-31.36 43 -28.72 43 -26 43 C-26 40.36 -26 37.72 -26 35 C-20.39 35 -14.78 35 -9 35 C-9 32.03 -9 29.06 -9 26 C-6.03 26 -3.06 26 0 26 C0 17.42 0 8.84 0 0 Z " fill="#B6B098" transform="translate(410,147)"/>
<path d="M0 0 C2.64 0 5.28 0 8 0 C8 2.31 8 4.62 8 7 C6.02 7.66 4.04 8.32 2 9 C1.67 14.28 1.34 19.56 1 25 C-1.64 25 -4.28 25 -7 25 C-7 30.61 -7 36.22 -7 42 C-9.97 42 -12.94 42 -16 42 C-15.814375 43.299375 -15.62875 44.59875 -15.4375 45.9375 C-15.12109375 48.15234375 -15.12109375 48.15234375 -15 50 C-16 51 -16 51 -17.84765625 51.09765625 C-19.8984375 51.06510417 -21.94921875 51.03255208 -24 51 C-23.84015625 51.81082031 -23.6803125 52.62164062 -23.515625 53.45703125 C-22.91799819 57.56345181 -22.77859823 61.54433188 -22.75 65.6875 C-22.729375 66.44611328 -22.70875 67.20472656 -22.6875 67.98632812 C-22.66657849 70.94933636 -22.66353592 73.36973938 -24.078125 76.01953125 C-26 77 -26 77 -33 77 C-33 68.09 -33 59.18 -33 50 C-29.535 49.505 -29.535 49.505 -26 49 C-25.67 46.69 -25.34 44.38 -25 42 C-22.36 42 -19.72 42 -17 42 C-17 36.72 -17 31.44 -17 26 C-13.04 24.515 -13.04 24.515 -9 23 C-8.90912109 21.50146484 -8.90912109 21.50146484 -8.81640625 19.97265625 C-8.73261719 18.68230469 -8.64882812 17.39195312 -8.5625 16.0625 C-8.48128906 14.77472656 -8.40007812 13.48695313 -8.31640625 12.16015625 C-8 9 -8 9 -7 8 C-4.66702567 7.95907063 -2.33294775 7.95758277 0 8 C0 5.36 0 2.72 0 0 Z " fill="#8A8371" transform="translate(122,359)"/>
<path d="M0 0 C2.64 0 5.28 0 8 0 C8 8.25 8 16.5 8 25 C10.97 25 13.94 25 17 25 C17 27.97 17 30.94 17 34 C19.64 34 22.28 34 25 34 C25 36.64 25 39.28 25 42 C19.39 42 13.78 42 8 42 C8 39.03 8 36.06 8 33 C5.36 33 2.72 33 0 33 C0 30.36 0 27.72 0 25 C-2.64 25 -5.28 25 -8 25 C-8 19.39 -8 13.78 -8 8 C-5.36 8 -2.72 8 0 8 C0 5.36 0 2.72 0 0 Z " fill="#A19B82" transform="translate(131,148)"/>
<path d="M0 0 C1.72974441 0.00015918 3.45949355 0.0058569 5.18920898 0.01586914 C6.09783188 0.01728409 7.00645477 0.01869904 7.94261169 0.02015686 C10.85687494 0.02577346 13.77106254 0.03832874 16.68530273 0.05102539 C18.65600475 0.05603825 20.62670797 0.06060153 22.59741211 0.06469727 C27.43923832 0.07574828 32.28100768 0.09302401 37.12280273 0.11352539 C37.12280273 3.08352539 37.12280273 6.05352539 37.12280273 9.11352539 C34.48280273 9.11352539 31.84280273 9.11352539 29.12280273 9.11352539 C29.12280273 11.75352539 29.12280273 14.39352539 29.12280273 17.11352539 C26.48280273 17.11352539 23.84280273 17.11352539 21.12280273 17.11352539 C21.12280273 25.36352539 21.12280273 33.61352539 21.12280273 42.11352539 C23.76280273 42.11352539 26.40280273 42.11352539 29.12280273 42.11352539 C29.12280273 42.44352539 29.12280273 42.77352539 29.12280273 43.11352539 C26.15280273 43.11352539 23.18280273 43.11352539 20.12280273 43.11352539 C20.12280273 34.53352539 20.12280273 25.95352539 20.12280273 17.11352539 C14.84280273 17.11352539 9.56280273 17.11352539 4.12280273 17.11352539 C4.12280273 14.47352539 4.12280273 11.83352539 4.12280273 9.11352539 C1.15280273 9.11352539 -1.81719727 9.11352539 -4.87719727 9.11352539 C-4.97485352 2.96118164 -4.97485352 2.96118164 -4.87719727 1.11352539 C-3.87719727 0.11352539 -3.87719727 0.11352539 0 0 Z " fill="#A07457" transform="translate(253.877197265625,214.886474609375)"/>
<path d="M0 0 C2.64 0 5.28 0 8 0 C8 5.61 8 11.22 8 17 C10.97 17 13.94 17 17 17 C17.02886984 20.97915159 17.04675406 24.95827653 17.0625 28.9375 C17.07087891 30.07380859 17.07925781 31.21011719 17.08789062 32.38085938 C17.09111328 33.46044922 17.09433594 34.54003906 17.09765625 35.65234375 C17.10289307 36.65257568 17.10812988 37.65280762 17.11352539 38.68334961 C17 41 17 41 16 42 C13.36 42 10.72 42 8 42 C8 36.39 8 30.78 8 25 C2.72 25.33 -2.56 25.66 -8 26 C-8 20.39 -8 14.78 -8 9 C-10.97 9 -13.94 9 -17 9 C-17 8.67 -17 8.34 -17 8 C-11.39 8 -5.78 8 0 8 C0 5.36 0 2.72 0 0 Z " fill="#575140" transform="translate(224,173)"/>
<path d="M0 0 C2.64 0 5.28 0 8 0 C8 5.61 8 11.22 8 17 C-11.14 16.67 -30.28 16.34 -50 16 C-50 13.36 -50 10.72 -50 8 C-33.5 8 -17 8 0 8 C0 5.36 0 2.72 0 0 Z " fill="#9F9B84" transform="translate(207,182)"/>
<path d="M0 0 C2.64 0 5.28 0 8 0 C8.09765625 6.15234375 8.09765625 6.15234375 8 8 C7 9 7 9 3.4375 9.0625 C2.303125 9.041875 1.16875 9.02125 0 9 C0 11.64 0 14.28 0 17 C-2.64 17 -5.28 17 -8 17 C-8 22.61 -8 28.22 -8 34 C-10.97 34 -13.94 34 -17 34 C-17 36.97 -17 39.94 -17 43 C-22.61 43 -28.22 43 -34 43 C-34 40.03 -34 37.06 -34 34 C-31.03 34 -28.06 34 -25 34 C-25 31.36 -25 28.72 -25 26 C-22.36 26 -19.72 26 -17 26 C-17 23.03 -17 20.06 -17 17 C-14.36 17 -11.72 17 -9 17 C-9 14.36 -9 11.72 -9 9 C-4.545 8.505 -4.545 8.505 0 8 C0 5.36 0 2.72 0 0 Z " fill="#595341" transform="translate(477,80)"/>
<path d="M0 0 C2.97 0 5.94 0 9 0 C9 2.64 9 5.28 9 8 C22.86 8 36.72 8 51 8 C51 10.64 51 13.28 51 16 C34.17 16 17.34 16 0 16 C0 10.72 0 5.44 0 0 Z " fill="#A19C84" transform="translate(325,182)"/>
<path d="M0 0 C0.33 0 0.66 0 1 0 C1 2.64 1 5.28 1 8 C3.64 8 6.28 8 9 8 C9 8.33 9 8.66 9 9 C6.03 9 3.06 9 0 9 C0 11.64 0 14.28 0 17 C-2.31 17.33 -4.62 17.66 -7 18 C-7.66 20.31 -8.32 22.62 -9 25 C-19.89 25 -30.78 25 -42 25 C-42 19.72 -42 14.44 -42 9 C-44.64 9 -47.28 9 -50 9 C-50 8.67 -50 8.34 -50 8 C-44.41153825 7.17630382 -39.5526875 6.8431901 -34 8 C-33 9 -33 9 -33 17 C-24.75 17 -16.5 17 -8 17 C-8 14.03 -8 11.06 -8 8 C-5.36 8 -2.72 8 0 8 C0 5.36 0 2.72 0 0 Z " fill="#5C4638" transform="translate(291,266)"/>
<path d="M0 0 C0.33 0.99 0.66 1.98 1 3 C1.99902344 2.98839844 2.99804688 2.97679687 4.02734375 2.96484375 C5.31769531 2.95582031 6.60804688 2.94679687 7.9375 2.9375 C9.22527344 2.92589844 10.51304687 2.91429687 11.83984375 2.90234375 C15 3 15 3 16 4 C16.04092937 6.33297433 16.04241723 8.66705225 16 11 C13.36 11 10.72 11 8 11 C8 22.22 8 33.44 8 45 C5.36 45 2.72 45 0 45 C0 30.15 0 15.3 0 0 Z " fill="#B7AF98" transform="translate(317,128)"/>
<path d="M0 0 C2.64 0 5.28 0 8 0 C9.33257403 16.8929385 9.33257403 16.8929385 8 24 C2.25 25.125 2.25 25.125 0 24 C0.020625 25.299375 0.04125 26.59875 0.0625 27.9375 C0.08399454 29.29165633 0.07148199 30.64756083 0 32 C-1 33 -1 33 -4 33.125 C-7 33 -7 33 -8 32 C-8.08726223 30.21928754 -8.10699041 28.4351686 -8.09765625 26.65234375 C-8.09443359 25.57275391 -8.09121094 24.49316406 -8.08789062 23.38085938 C-8.07951172 22.24455078 -8.07113281 21.10824219 -8.0625 19.9375 C-8.05798828 18.79732422 -8.05347656 17.65714844 -8.04882812 16.48242188 C-8.03699747 13.65489649 -8.0205141 10.8274736 -8 8 C-5.36 8 -2.72 8 0 8 C0 5.36 0 2.72 0 0 Z " fill="#7B6650" transform="translate(494,368)"/>
<path d="M0 0 C1.134375 0.020625 2.26875 0.04125 3.4375 0.0625 C3.4375 3.0325 3.4375 6.0025 3.4375 9.0625 C6.0775 9.0625 8.7175 9.0625 11.4375 9.0625 C12.60056443 12.61200034 12.36115049 15.62073948 12 19.3125 C11.89816406 20.39015625 11.79632813 21.4678125 11.69140625 22.578125 C11.60761719 23.39796875 11.52382813 24.2178125 11.4375 25.0625 C8.7975 25.0625 6.1575 25.0625 3.4375 25.0625 C3.4375 27.7025 3.4375 30.3425 3.4375 33.0625 C1.10455225 33.10491723 -1.22952567 33.10342937 -3.5625 33.0625 C-5.47099948 31.15400052 -4.69309633 27.74771226 -4.6953125 25.21875 C-4.69626923 24.53445923 -4.69722595 23.85016846 -4.69821167 23.1451416 C-4.6988933 21.69588123 -4.69704023 20.24661782 -4.69287109 18.79736328 C-4.68752252 16.57187072 -4.6928166 14.34657999 -4.69921875 12.12109375 C-4.69855797 10.71614539 -4.6972768 9.31119715 -4.6953125 7.90625 C-4.69418457 6.61912109 -4.69305664 5.33199219 -4.69189453 4.00585938 C-4.50328372 -0.28450279 -4.40925143 0.07735529 0 0 Z " fill="#7B6A53" transform="translate(439.5625,282.9375)"/>
<path d="M0 0 C1.37478516 0.01740234 1.37478516 0.01740234 2.77734375 0.03515625 C3.69644531 0.04417969 4.61554688 0.05320313 5.5625 0.0625 C6.27277344 0.07410156 6.98304688 0.08570313 7.71484375 0.09765625 C6.72484375 0.59265625 6.72484375 0.59265625 5.71484375 1.09765625 C5.71484375 3.40765625 5.71484375 5.71765625 5.71484375 8.09765625 C8.64927777 7.83109053 8.64927777 7.83109053 11.71484375 7.09765625 C12.37484375 6.10765625 13.03484375 5.11765625 13.71484375 4.09765625 C13.38484375 5.74765625 13.05484375 7.39765625 12.71484375 9.09765625 C10.73484375 9.42765625 8.75484375 9.75765625 6.71484375 10.09765625 C6.38484375 12.40765625 6.05484375 14.71765625 5.71484375 17.09765625 C7.41640625 17.06671875 7.41640625 17.06671875 9.15234375 17.03515625 C12.71484375 17.09765625 12.71484375 17.09765625 13.71484375 18.09765625 C13.78803996 20.79420479 13.80726912 23.46457083 13.77734375 26.16015625 C13.77283203 26.91876953 13.76832031 27.67738281 13.76367188 28.45898438 C13.75185055 30.33857496 13.73391453 32.21812524 13.71484375 34.09765625 C12.3833786 34.29799244 11.04946522 34.48205642 9.71484375 34.66015625 C8.60109375 34.81677734 8.60109375 34.81677734 7.46484375 34.9765625 C4.71484375 35.09765625 4.71484375 35.09765625 -3.28515625 34.09765625 C-3.61515625 28.48765625 -3.94515625 22.87765625 -4.28515625 17.09765625 C-0.32515625 16.60265625 -0.32515625 16.60265625 3.71484375 16.09765625 C3.71484375 14.11765625 3.71484375 12.13765625 3.71484375 10.09765625 C0.87235835 8.52492057 0.87235835 8.52492057 -2.28515625 8.09765625 C-2.61515625 8.75765625 -2.94515625 9.41765625 -3.28515625 10.09765625 C-3.31204841 8.61858733 -3.33150246 7.13938142 -3.34765625 5.66015625 C-3.35925781 4.83644531 -3.37085938 4.01273438 -3.3828125 3.1640625 C-3.24381204 0.22281267 -2.9444484 0.12583113 0 0 Z " fill="#514E43" transform="translate(480.28515625,189.90234375)"/>
<path d="M0 0 C0.33 0 0.66 0 1 0 C1.1044444 14.0373272 1.18400916 28.00332032 0 42 C-2.97 42 -5.94 42 -9 42 C-9 39.36 -9 36.72 -9 34 C-11.64 34 -14.28 34 -17 34 C-17 31.36 -17 28.72 -17 26 C-14.36 26 -11.72 26 -9 26 C-9.020625 24.700625 -9.04125 23.40125 -9.0625 22.0625 C-9.08399454 20.70834367 -9.07148199 19.35243917 -9 18 C-8.67 17.67 -8.34 17.34 -8 17 C-5.36 17 -2.72 17 0 17 C0 11.39 0 5.78 0 0 Z " fill="#58513E" transform="translate(528,232)"/>
<path d="M0 0 C2.475 0.495 2.475 0.495 5 1 C4.01 1.495 4.01 1.495 3 2 C2.26924352 4.3140622 1.59861742 6.64828869 1 9 C1.99 9.66 2.98 10.32 4 11 C3.01 11 2.02 11 1 11 C1.020625 12.175625 1.04125 13.35125 1.0625 14.5625 C1.13281227 18.57029937 0.58868581 21.87919936 0 26 C-5.61 26 -11.22 26 -17 26 C-17.33 20.72 -17.66 15.44 -18 10 C-15.36 10 -12.72 10 -10 10 C-9 11 -9 11 -8.90234375 12.84765625 C-8.95117188 15.92382812 -8.95117188 15.92382812 -9 19 C-6.36 19 -3.72 19 -1 19 C-1 16.03 -1 13.06 -1 10 C-3.64 10 -6.28 10 -9 10 C-9 7.36 -9 4.72 -9 2 C-6.03 2 -3.06 2 0 2 C0 1.34 0 0.68 0 0 Z " fill="#65533F" transform="translate(410,509)"/>
<path d="M0 0 C2.97 0 5.94 0 9 0 C8.67 0.66 8.34 1.32 8 2 C6.02 2 4.04 2 2 2 C1.67 21.14 1.34 40.28 1 60 C1.66 60.33 2.32 60.66 3 61 C2.505 61.495 2.505 61.495 2 62 C1.91093688 63.74062134 1.89315226 65.48490902 1.90234375 67.2277832 C1.90560669 68.37011414 1.90886963 69.51244507 1.91223145 70.68939209 C1.92057007 71.96365051 1.92890869 73.23790894 1.9375 74.55078125 C1.94227966 75.91318573 1.9464538 77.27559244 1.95007324 78.63800049 C1.95845875 81.61586703 1.96919762 84.59371158 1.98168945 87.57156372 C2.01481871 95.761224 2.02643885 103.95090364 2.03125 112.140625 C2.03179886 113.02098986 2.03234772 113.90135471 2.03291321 114.80839729 C2.04117233 139.72769534 1.76624046 164.64490721 1.5 189.5625 C1.48797546 190.69585911 1.47595093 191.82921822 1.46356201 192.99692154 C1.31496209 206.99801555 1.16081838 220.99904107 1 235 C0.67 235 0.34 235 0 235 C0 157.45 0 79.9 0 0 Z " fill="#797874" transform="translate(292,300)"/>
<path d="M0 0 C5.61 0 11.22 0 17 0 C17 2.97 17 5.94 17 9 C14.36 9 11.72 9 9 9 C9 11.64 9 14.28 9 17 C6.03 17 3.06 17 0 17 C0 14.36 0 11.72 0 9 C-5.28 9 -10.56 9 -16 9 C-16 8.67 -16 8.34 -16 8 C-10.72 8 -5.44 8 0 8 C0 5.36 0 2.72 0 0 Z " fill="#58533D" transform="translate(485,249)"/>
<path d="M0 0 C0.33 0.66 0.66 1.32 1 2 C3.64 2 6.28 2 9 2 C9.02691685 4.45840605 9.04679802 6.91651882 9.0625 9.375 C9.07087891 10.07367188 9.07925781 10.77234375 9.08789062 11.4921875 C9.11328125 16.7734375 9.11328125 16.7734375 8 19 C2.39 19 -3.22 19 -9 19 C-10.125 13.375 -10.125 13.375 -8 10 C-6.02 10 -4.04 10 -2 10 C-0.70381628 7.91128797 -0.70381628 7.91128797 -1.5625 5 C-1.7790625 3.515 -1.7790625 3.515 -2 2 C-1.34 1.34 -0.68 0.68 0 0 Z " fill="#746351" transform="translate(503,475)"/>
<path d="M0 0 C2.64 0 5.28 0 8 0 C8 5.61 8 11.22 8 17 C2.39 17 -3.22 17 -9 17 C-9 14.03 -9 11.06 -9 8 C-5.535 7.505 -5.535 7.505 -2 7 C-1.34 4.69 -0.68 2.38 0 0 Z " fill="#333128" transform="translate(300,283)"/>
<path d="M0 0 C0.33 0 0.66 0 1 0 C1 5.61 1 11.22 1 17 C3.64 17 6.28 17 9 17 C9 19.64 9 22.28 9 25 C5.04 25.495 5.04 25.495 1 26 C0.67 28.31 0.34 30.62 0 33 C-2.64 33.33 -5.28 33.66 -8 34 C-8.02684679 31.35409986 -8.04676357 28.70846904 -8.0625 26.0625 C-8.07087891 25.30775391 -8.07925781 24.55300781 -8.08789062 23.77539062 C-8.09652441 21.85005687 -8.05224333 19.92464419 -8 18 C-7.67 17.67 -7.34 17.34 -7 17 C-4.69 17 -2.38 17 0 17 C0 11.39 0 5.78 0 0 Z " fill="#7C7661" transform="translate(215,182)"/>
<path d="M0 0 C2.97 0 5.94 0 9 0 C9 2.97 9 5.94 9 9 C11.64 9 14.28 9 17 9 C17 11.64 17 14.28 17 17 C11.39 17 5.78 17 0 17 C0 11.39 0 5.78 0 0 Z " fill="#9F9A85" transform="translate(139,173)"/>
<path d="M0 0 C8.58 0 17.16 0 26 0 C26 2.64 26 5.28 26 8 C17.42 8 8.84 8 0 8 C0 5.36 0 2.72 0 0 Z " fill="#555041" transform="translate(485,148)"/>
<path d="M0 0 C2.64 0 5.28 0 8 0 C8.33 4.95 8.66 9.9 9 15 C11.31 15.33 13.62 15.66 16 16 C16.33 18.64 16.66 21.28 17 24 C14.03 24 11.06 24 8 24 C8 21.36 8 18.72 8 16 C5.36 16 2.72 16 0 16 C0 10.72 0 5.44 0 0 Z " fill="#B7B199" transform="translate(123,157)"/>
<path d="M0 0 C5.28 0 10.56 0 16 0 C16 1.65 16 3.3 16 5 C13.22957891 7.77042109 11.23466195 7.39796106 7.375 7.625 C6.18648437 7.69976562 4.99796875 7.77453125 3.7734375 7.8515625 C2.40058594 7.92503906 2.40058594 7.92503906 1 8 C1 10.64 1 13.28 1 16 C-1.97 16 -4.94 16 -8 16 C-8 13.36 -8 10.72 -8 8 C-5.36 7.67 -2.72 7.34 0 7 C0 4.69 0 2.38 0 0 Z " fill="#89826F" transform="translate(181,292)"/>
<path d="M0 0 C0.33 0 0.66 0 1 0 C1.19585353 3.97880228 1.3802867 7.95805156 1.5625 11.9375 C1.61857422 13.07380859 1.67464844 14.21011719 1.73242188 15.38085938 C1.78076172 16.46044922 1.82910156 17.54003906 1.87890625 18.65234375 C1.9260376 19.65257568 1.97316895 20.65280762 2.02172852 21.68334961 C2 24 2 24 1 25 C-1.67058851 25.14115161 -4.32432238 25.04247107 -7 25 C-6.84015625 25.81082031 -6.6803125 26.62164062 -6.515625 27.45703125 C-5.91799819 31.56345181 -5.77859823 35.54433188 -5.75 39.6875 C-5.729375 40.44611328 -5.70875 41.20472656 -5.6875 41.98632812 C-5.64891104 47.45149019 -5.64891104 47.45149019 -7.28515625 50.0078125 C-10.08893551 51.63004469 -12.8488092 51.17836929 -16 51 C-16 50.34 -16 49.68 -16 49 C-13.69 49 -11.38 49 -9 49 C-8.67 41.08 -8.34 33.16 -8 25 C-10.64 25 -13.28 25 -16 25 C-16 24.67 -16 24.34 -16 24 C-12.535 23.505 -12.535 23.505 -9 23 C-8.67 20.69 -8.34 18.38 -8 16 C-5.36 16 -2.72 16 0 16 C0 10.72 0 5.44 0 0 Z " fill="#7A7360" transform="translate(105,385)"/>
<path d="M0 0 C1.22036504 3.66109511 0.94694905 6.84344117 0.6875 10.625 C0.65205078 11.31851562 0.61660156 12.01203125 0.58007812 12.7265625 C0.46461815 14.49120457 0.24042891 16.24800497 0 18 C-2 19 -2 19 -10 18 C-10 12.39 -10 6.78 -10 1 C-2 0 -2 0 0 0 Z " fill="#595343" transform="translate(106,493)"/>
<path d="M0 0 C2.64 0 5.28 0 8 0 C8 3.3 8 6.6 8 10 C4 11 4 11 1 10 C0.67 11.32 0.34 12.64 0 14 C0.66 14.33 1.32 14.66 2 15 C2.33 15.66 2.66 16.32 3 17 C-0.63 17 -4.26 17 -8 17 C-8 14.03 -8 11.06 -8 8 C-5.36 8 -2.72 8 0 8 C0 5.36 0 2.72 0 0 Z " fill="#9E9880" transform="translate(148,325)"/>
<path d="M0 0 C2.64590014 -0.02684679 5.29153096 -0.04676357 7.9375 -0.0625 C8.69224609 -0.07087891 9.44699219 -0.07925781 10.22460938 -0.08789062 C12.14994313 -0.09652441 14.07535581 -0.05224333 16 0 C17 1 17 1 17 8 C22.61 8 28.22 8 34 8 C34 8.33 34 8.66 34 9 C29.80078534 9.02476851 25.60160971 9.04289246 21.40234375 9.05493164 C19.97460184 9.05995206 18.54686504 9.06676972 17.11914062 9.07543945 C15.06378921 9.08760553 13.00850593 9.09325128 10.953125 9.09765625 C9.09929199 9.10551147 9.09929199 9.10551147 7.20800781 9.11352539 C4.5854329 9.02071737 2.48355406 8.78356673 0 8 C0 5.36 0 2.72 0 0 Z " fill="#866F52" transform="translate(249,173)"/>
<path d="M0 0 C2.62527189 -0.05382106 5.24944713 -0.09358313 7.875 -0.125 C8.62136719 -0.14175781 9.36773437 -0.15851563 10.13671875 -0.17578125 C12.09194461 -0.1933959 14.04742021 -0.10320189 16 0 C16.66 0.66 17.32 1.32 18 2 C17.1875 5.4375 17.1875 5.4375 16 9 C12.45325997 10.18224668 10.02477005 9.89329634 6.3125 9.5625 C5.13300781 9.46066406 3.95351563 9.35882813 2.73828125 9.25390625 C1.83464844 9.17011719 0.93101562 9.08632812 0 9 C0 6.03 0 3.06 0 0 Z " fill="#B6AD94" transform="translate(275,232)"/>
<path d="M0 0 C2.64 0 5.28 0 8 0 C8 2.97 8 5.94 8 9 C5.36 9 2.72 9 0 9 C0 11.64 0 14.28 0 17 C-2.97 17 -5.94 17 -9 17 C-9 14.03 -9 11.06 -9 8 C-6.03 8 -3.06 8 0 8 C0 5.36 0 2.72 0 0 Z " fill="#98927C" transform="translate(165,308)"/>
<path d="M0 0 C2.97 0 5.94 0 9 0 C9 2.97 9 5.94 9 9 C6.03 9 3.06 9 0 9 C0 11.64 0 14.28 0 17 C-2.64 17 -5.28 17 -8 17 C-8 14.03 -8 11.06 -8 8 C-5.36 8 -2.72 8 0 8 C0 5.36 0 2.72 0 0 Z " fill="#8E8470" transform="translate(80,308)"/>
<path d="M0 0 C1.05960937 0.00676758 1.05960937 0.00676758 2.140625 0.01367188 C3.88545275 0.02546125 5.630237 0.04339676 7.375 0.0625 C7.375 3.0325 7.375 6.0025 7.375 9.0625 C1.765 9.0625 -3.845 9.0625 -9.625 9.0625 C-9.625 6.4225 -9.625 3.7825 -9.625 1.0625 C-6.55966836 -0.47016582 -3.35745728 -0.04026471 0 0 Z " fill="#836E53" transform="translate(317.625,172.9375)"/>
<path d="M0 0 C2.64590014 -0.02684679 5.29153096 -0.04676357 7.9375 -0.0625 C8.69224609 -0.07087891 9.44699219 -0.07925781 10.22460938 -0.08789062 C12.14994313 -0.09652441 14.07535581 -0.05224333 16 0 C17 1 17 1 17 9 C11.39 8.67 5.78 8.34 0 8 C0 5.36 0 2.72 0 0 Z " fill="#856C50" transform="translate(283,173)"/>
<path d="M0 0 C2.64 0 5.28 0 8 0 C8 5.61 8 11.22 8 17 C5.36 17 2.72 17 0 17 C0 11.39 0 5.78 0 0 Z " fill="#9F9983" transform="translate(131,342)"/>
<path d="M0 0 C5.61 0 11.22 0 17 0 C17 2.64 17 5.28 17 8 C11.39 8 5.78 8 0 8 C0 5.36 0 2.72 0 0 Z " fill="#2B241A" transform="translate(283,224)"/>
<path d="M0 0 C5.61 0 11.22 0 17 0 C17 2.64 17 5.28 17 8 C11.39 8 5.78 8 0 8 C0 5.36 0 2.72 0 0 Z " fill="#2D2318" transform="translate(241,224)"/>
<path d="M0 0 C5.28 0 10.56 0 16 0 C16 2.97 16 5.94 16 9 C10.72 8.67 5.44 8.34 0 8 C0 5.36 0 2.72 0 0 Z " fill="#5E4B3C" transform="translate(258,232)"/>
<path d="M0 0 C2.31 0 4.62 0 7 0 C8 1 8 1 8.09765625 4.59765625 C8.0909822 6.08596867 8.07902183 7.57426432 8.0625 9.0625 C8.05798828 9.82111328 8.05347656 10.57972656 8.04882812 11.36132812 C8.0370068 13.24091871 8.01907078 15.12046899 8 17 C5.36 17 2.72 17 0 17 C0 11.39 0 5.78 0 0 Z " fill="#3E3C2F" transform="translate(486,207)"/>
<path d="M0 0 C5.28 0 10.56 0 16 0 C16.33 2.64 16.66 5.28 17 8 C11.39 8 5.78 8 0 8 C0 5.36 0 2.72 0 0 Z " fill="#A28768" transform="translate(266,173)"/>
<path d="M0 0 C2.64 0 5.28 0 8 0 C8 5.28 8 10.56 8 16 C3 17 3 17 0 16 C0 10.72 0 5.44 0 0 Z " fill="#B6B098" transform="translate(300,216)"/>
<path d="M0 0 C5.28 0 10.56 0 16 0 C16 2.64 16 5.28 16 8 C10.72 8 5.44 8 0 8 C0 5.36 0 2.72 0 0 Z " fill="#58503C" transform="translate(157,325)"/>
<path d="M0 0 C6 0 6 0 8 1 C8 5.95 8 10.9 8 16 C5.36 16 2.72 16 0 16 C0 10.72 0 5.44 0 0 Z " fill="#575141" transform="translate(106,519)"/>
<path d="M0 0 C3 0.125 3 0.125 4 1.125 C4.07313567 3.65549402 4.09247527 6.15804837 4.0625 8.6875 C4.05798828 9.39841797 4.05347656 10.10933594 4.04882812 10.84179688 C4.03700864 12.60290013 4.01907263 14.36396036 4 16.125 C1.36 16.125 -1.28 16.125 -4 16.125 C-4.02685095 13.64576199 -4.04676547 11.1668116 -4.0625 8.6875 C-4.07506836 7.62692383 -4.07506836 7.62692383 -4.08789062 6.54492188 C-4.09653588 4.73806441 -4.05220011 2.93112397 -4 1.125 C-3 0.125 -3 0.125 0 0 Z " fill="#8C8774" transform="translate(144,122.875)"/>
<path d="M0 0 C5.61 0 11.22 0 17 0 C17 2.64 17 5.28 17 8 C11.39 8 5.78 8 0 8 C0 5.36 0 2.72 0 0 Z " fill="#898471" transform="translate(156,266)"/>
<path d="M0 0 C2.31 0 4.62 0 7 0 C7 5.28 7 10.56 7 16 C4.69 15.67 2.38 15.34 0 15 C0 10.05 0 5.1 0 0 Z " fill="#7B654E" transform="translate(427,317)"/>
<path d="M0 0 C1.23556641 0.01740234 1.23556641 0.01740234 2.49609375 0.03515625 C3.32238281 0.04417969 4.14867187 0.05320312 5 0.0625 C5.63808594 0.07410156 6.27617187 0.08570313 6.93359375 0.09765625 C6.93359375 0.42765625 6.93359375 0.75765625 6.93359375 1.09765625 C4.95359375 1.09765625 2.97359375 1.09765625 0.93359375 1.09765625 C0.84271484 2.81275391 0.84271484 2.81275391 0.75 4.5625 C0.66560947 6.0533993 0.58096073 7.544284 0.49609375 9.03515625 C0.45677734 9.78990234 0.41746094 10.54464844 0.37695312 11.32226562 C0.046875 16.984375 0.046875 16.984375 -1.06640625 18.09765625 C-3.59690027 18.17079192 -6.09945462 18.19013152 -8.62890625 18.16015625 C-9.33982422 18.15564453 -10.05074219 18.15113281 -10.78320312 18.14648438 C-12.54430638 18.13466489 -14.30536661 18.11672888 -16.06640625 18.09765625 C-16.06640625 17.76765625 -16.06640625 17.43765625 -16.06640625 17.09765625 C-12.43640625 16.76765625 -8.80640625 16.43765625 -5.06640625 16.09765625 C-4.40640625 14.11765625 -3.74640625 12.13765625 -3.06640625 10.09765625 C-8.01640625 10.09765625 -12.96640625 10.09765625 -18.06640625 10.09765625 C-18.06640625 9.76765625 -18.06640625 9.43765625 -18.06640625 9.09765625 C-13.11640625 8.76765625 -8.16640625 8.43765625 -3.06640625 8.09765625 C-3.06640625 5.78765625 -3.06640625 3.47765625 -3.06640625 1.09765625 C-2.06640625 0.09765625 -2.06640625 0.09765625 0 0 Z " fill="#7E7764" transform="translate(200.06640625,281.90234375)"/>
<path d="M0 0 C2.64 0 5.28 0 8 0 C9.53445094 3.06890187 8.54984289 5.70094266 8 9 C2.31302429 9.91397824 -2.31302429 9.91397824 -8 9 C-7.67 8.34 -7.34 7.68 -7 7 C-4.69 7 -2.38 7 0 7 C0 4.69 0 2.38 0 0 Z " fill="#655D51" transform="translate(72,367)"/>
<path d="M0 0 C0.33 0 0.66 0 1 0 C1 5.61 1 11.22 1 17 C-1.97 17 -4.94 17 -8 17 C-8 14.03 -8 11.06 -8 8 C-5.36 8 -2.72 8 0 8 C0 5.36 0 2.72 0 0 Z " fill="#85806D" transform="translate(333,131)"/>
<path d="M0 0 C2.97 0 5.94 0 9 0 C9.625 3.375 9.625 3.375 10 7 C8 9 8 9 6.0546875 9.1953125 C4.03645833 9.13020833 2.01822917 9.06510417 0 9 C0 6.03 0 3.06 0 0 Z " fill="#837E6B" transform="translate(139,274)"/>
<path d="M0 0 C0.33 0 0.66 0 1 0 C1 13.53 1 27.06 1 41 C-0.65 41 -2.3 41 -4 41 C-3.67 39.35 -3.34 37.7 -3 36 C-4.11375 35.690625 -5.2275 35.38125 -6.375 35.0625 C-10 34 -10 34 -12 33 C-11.505 32.505 -11.505 32.505 -11 32 C-7.37 32 -3.74 32 0 32 C0 21.44 0 10.88 0 0 Z " fill="#A7967B" transform="translate(316,132)"/>
<path d="M0 0 C3.63 0 7.26 0 11 0 C9.59067358 6.16580311 9.59067358 6.16580311 8 9 C5.23894834 10.45404496 3.16294373 10.63703924 0 11 C0 7.37 0 3.74 0 0 Z " fill="#686350" transform="translate(72,325)"/>
<path d="M0 0 C5.94 0 11.88 0 18 0 C16 2 16 2 13.1796875 2.1953125 C12.08914062 2.17210937 10.99859375 2.14890625 9.875 2.125 C8.77929688 2.10695312 7.68359375 2.08890625 6.5546875 2.0703125 C5.71164063 2.04710937 4.86859375 2.02390625 4 2 C3.690625 3.134375 3.38125 4.26875 3.0625 5.4375 C2 9 2 9 1 10 C-1.53049402 10.07313567 -4.03304837 10.09247527 -6.5625 10.0625 C-7.27341797 10.05798828 -7.98433594 10.05347656 -8.71679688 10.04882812 C-10.47790013 10.03700864 -12.23896036 10.01907263 -14 10 C-14.33 11.98 -14.66 13.96 -15 16 C-15.33 16 -15.66 16 -16 16 C-16.04241723 13.66705225 -16.04092937 11.33297433 -16 9 C-15 8 -15 8 -11.62109375 7.90234375 C-10.22652923 7.90901631 -8.83198257 7.92097468 -7.4375 7.9375 C-6.72658203 7.94201172 -6.01566406 7.94652344 -5.28320312 7.95117188 C-3.52209987 7.96299136 -1.76103964 7.98092737 0 8 C0 5.36 0 2.72 0 0 Z " fill="#A88158" transform="translate(96,38)"/>
<path d="M0 0 C2.97 0 5.94 0 9 0 C9 2.97 9 5.94 9 9 C6.03 9 3.06 9 0 9 C0 6.03 0 3.06 0 0 Z " fill="#A5A392" transform="translate(367,139)"/>
<path d="M0 0 C2.97 0 5.94 0 9 0 C9 2.97 9 5.94 9 9 C6.03 9 3.06 9 0 9 C0 6.03 0 3.06 0 0 Z " fill="#A4A390" transform="translate(173,139)"/>
<path d="M0 0 C2 2 2 2 2.125 4.625 C2.08375 5.40875 2.0425 6.1925 2 7 C7.01535052 6.67039784 7.01535052 6.67039784 11 4 C11 4.66 11 5.32 11 6 C15.70584554 5.39872591 15.70584554 5.39872591 20.3125 4.3125 C20.869375 4.209375 21.42625 4.10625 22 4 C22.66 4.66 23.32 5.32 24 6 C26.14550973 6.16706799 26.14550973 6.16706799 28.5 6 C30.90625 5.875 30.90625 5.875 33 6 C33.66 6.66 34.32 7.32 35 8 C23.45 8 11.9 8 0 8 C0 5.36 0 2.72 0 0 Z " fill="#B0916D" transform="translate(494,140)"/>
<path d="M0 0 C2.97 0 5.94 0 9 0 C8.67 0.66 8.34 1.32 8 2 C6.02 2 4.04 2 2 2 C1.67 21.14 1.34 40.28 1 60 C0.67 60 0.34 60 0 60 C0 40.2 0 20.4 0 0 Z " fill="#737673" transform="translate(292,300)"/>
<path d="M0 0 C2.64 0 5.28 0 8 0 C8.66 2.97 9.32 5.94 10 9 C6.7 9 3.4 9 0 9 C0 6.03 0 3.06 0 0 Z " fill="#B5AF99" transform="translate(401,130)"/>
<path d="M0 0 C2.97 0.33 5.94 0.66 9 1 C9 3.64 9 6.28 9 9 C5.7 9 2.4 9 -1 9 C-0.67 6.03 -0.34 3.06 0 0 Z " fill="#3F3B2D" transform="translate(485,240)"/>
<path d="M0 0 C0.96679688 0.11085938 1.93359375 0.22171875 2.9296875 0.3359375 C4.01636719 0.47902344 4.01636719 0.47902344 5.125 0.625 C5.125 0.955 5.125 1.285 5.125 1.625 C0.175 1.955 -4.775 2.285 -9.875 2.625 C-10.205 18.795 -10.535 34.965 -10.875 51.625 C-11.205 51.625 -11.535 51.625 -11.875 51.625 C-12.04581422 47.07615141 -12.20593724 42.52708057 -12.35717773 37.97753906 C-12.40975117 36.43772863 -12.46498544 34.89800617 -12.52319336 33.35839844 C-12.92358045 22.70462019 -12.74282344 12.25244363 -11.875 1.625 C-7.5485707 0.08472808 -4.5810356 -0.55866288 0 0 Z " fill="#686351" transform="translate(150.875,121.375)"/>
<path d="M0 0 C2.64 0 5.28 0 8 0 C8 2.97 8 5.94 8 9 C5.36 9 2.72 9 0 9 C0 6.03 0 3.06 0 0 Z " fill="#84816F" transform="translate(106,291)"/>
<path d="M0 0 C2.64 0 5.28 0 8 0 C8 2.97 8 5.94 8 9 C5.36 9 2.72 9 0 9 C0 6.03 0 3.06 0 0 Z " fill="#8C836D" transform="translate(317,173)"/>
<path d="M0 0 C2.64 0 5.28 0 8 0 C8.66 2.31 9.32 4.62 10 7 C9 8 9 8 6.93359375 8.09765625 C6.10988281 8.08605469 5.28617187 8.07445313 4.4375 8.0625 C3.61121094 8.05347656 2.78492188 8.04445313 1.93359375 8.03515625 C1.29550781 8.02355469 0.65742188 8.01195313 0 8 C0 5.36 0 2.72 0 0 Z " fill="#B6B098" transform="translate(384,114)"/>
<path d="M0 0 C0.33 0 0.66 0 1 0 C1 2.31 1 4.62 1 7 C3.64 7 6.28 7 9 7 C9 9.31 9 11.62 9 14 C6.03 14 3.06 14 0 14 C-0.77916092 8.97874074 -1.13016601 5.02296004 0 0 Z " fill="#585545" transform="translate(139,521)"/>
<path d="M0 0 C1.134375 0.020625 2.26875 0.04125 3.4375 0.0625 C3.4375 3.0325 3.4375 6.0025 3.4375 9.0625 C0.7975 9.0625 -1.8425 9.0625 -4.5625 9.0625 C-4.66015625 2.91015625 -4.66015625 2.91015625 -4.5625 1.0625 C-3.5625 0.0625 -3.5625 0.0625 0 0 Z " fill="#977F68" transform="translate(405.5625,518.9375)"/>
<path d="M0 0 C2.33944736 0.28730055 4.6739143 0.61936779 7 1 C7 3.97 7 6.94 7 10 C4.36 10 1.72 10 -1 10 C-1.02689216 8.52093108 -1.04634621 7.04172517 -1.0625 5.5625 C-1.07410156 4.73878906 -1.08570313 3.91507812 -1.09765625 3.06640625 C-1 1 -1 1 0 0 Z " fill="#91876E" transform="translate(65,324)"/>
<path d="M0 0 C1.65 0 3.3 0 5 0 C4.01 0.33 3.02 0.66 2 1 C2.061875 1.928125 2.12375 2.85625 2.1875 3.8125 C2 7 2 7 0.9375 8.6875 C-2.03981788 10.70439276 -4.64825295 10.28491047 -8.1875 10.1875 C-9.45980469 10.16042969 -10.73210937 10.13335937 -12.04296875 10.10546875 C-13.50669922 10.05326172 -13.50669922 10.05326172 -15 10 C-15.33 12.31 -15.66 14.62 -16 17 C-18.97 17 -21.94 17 -25 17 C-25 16.67 -25 16.34 -25 16 C-22.36 16 -19.72 16 -17 16 C-17 13.36 -17 10.72 -17 8 C-13.16275828 7.09586327 -9.62497726 6.89423102 -5.6875 6.9375 C-4.08455078 6.95103516 -4.08455078 6.95103516 -2.44921875 6.96484375 C-1.64097656 6.97644531 -0.83273438 6.98804687 0 7 C0 4.69 0 2.38 0 0 Z " fill="#6C6753" transform="translate(156,89)"/>
<path d="M0 0 C0 2.64 0 5.28 0 8 C-2.64 8 -5.28 8 -8 8 C-8.33 5.69 -8.66 3.38 -9 1 C-5.57367167 -0.61798838 -3.61944899 -1.34053666 0 0 Z " fill="#887865" transform="translate(216,503)"/>
<path d="M0 0 C3 0.125 3 0.125 4 1.125 C4.14115161 3.79558851 4.04247107 6.44932238 4 9.125 C1.36 9.125 -1.28 9.125 -4 9.125 C-4.09765625 2.97265625 -4.09765625 2.97265625 -4 1.125 C-3 0.125 -3 0.125 0 0 Z " fill="#554F3F" transform="translate(245,214.875)"/>
<path d="M0 0 C0.33 0.99 0.66 1.98 1 3 C4.465 2.505 4.465 2.505 8 2 C8 4.97 8 7.94 8 11 C5.36 11 2.72 11 0 11 C0 7.37 0 3.74 0 0 Z " fill="#A18A6E" transform="translate(241,170)"/>
<path d="M0 0 C0.33 0 0.66 0 1 0 C1.02689216 1.47906892 1.04634621 2.95827483 1.0625 4.4375 C1.07410156 5.26121094 1.08570313 6.08492187 1.09765625 6.93359375 C1 9 1 9 0 10 C-2.33297433 10.04092937 -4.66705225 10.04241723 -7 10 C-7 7.03 -7 4.06 -7 1 C-5.5459375 1.0309375 -5.5459375 1.0309375 -4.0625 1.0625 C-1.12534105 1.35618499 -1.12534105 1.35618499 0 0 Z " fill="#8E8872" transform="translate(425,146)"/>
<path d="M0 0 C2.64 0 5.28 0 8 0 C8.04241723 2.33294775 8.04092937 4.66702567 8 7 C7 8 7 8 5.15234375 8.09765625 C3.1015625 8.06510417 1.05078125 8.03255208 -1 8 C-0.67 5.36 -0.34 2.72 0 0 Z " fill="#898371" transform="translate(98,300)"/>
<path d="M0 0 C2.97 0 5.94 0 9 0 C7.68 2.31 6.36 4.62 5 7 C8.96 7.33 12.92 7.66 17 8 C17 8.33 17 8.66 17 9 C11.39 9 5.78 9 0 9 C0 6.03 0 3.06 0 0 Z " fill="#5D5743" transform="translate(443,114)"/>
<path d="M0 0 C2.05078125 0.03255208 4.1015625 0.06510417 6.15234375 0.09765625 C6.15234375 2.73765625 6.15234375 5.37765625 6.15234375 8.09765625 C3.18234375 8.09765625 0.21234375 8.09765625 -2.84765625 8.09765625 C-2.89007348 5.7647085 -2.88858562 3.43063058 -2.84765625 1.09765625 C-1.84765625 0.09765625 -1.84765625 0.09765625 0 0 Z " fill="#8B836E" transform="translate(310.84765625,206.90234375)"/>
<path d="M0 0 C2.64 0.33 5.28 0.66 8 1 C8 3.64 8 6.28 8 9 C5.66705225 9.04241723 3.33297433 9.04092937 1 9 C0 8 0 8 -0.09765625 6.15234375 C-0.06510417 4.1015625 -0.03255208 2.05078125 0 0 Z " fill="#8D7A64" transform="translate(494,392)"/>
<path d="M0 0 C2.64 0.33 5.28 0.66 8 1 C8 3.64 8 6.28 8 9 C5.36 9 2.72 9 0 9 C0 6.03 0 3.06 0 0 Z " fill="#6B5E4C" transform="translate(55,375)"/>
<path d="M0 0 C2.97 0 5.94 0 9 0 C9 2.64 9 5.28 9 8 C6.36 8 3.72 8 1 8 C0.67 5.36 0.34 2.72 0 0 Z " fill="#6D6855" transform="translate(400,283)"/>
<path d="M0 0 C2.64 0 5.28 0 8 0 C8 2.64 8 5.28 8 8 C5.36 8 2.72 8 0 8 C0 5.36 0 2.72 0 0 Z " fill="#9F9A84" transform="translate(148,325)"/>
<path d="M0 0 C2.64 0 5.28 0 8 0 C8 2.64 8 5.28 8 8 C5.36 8 2.72 8 0 8 C0 5.36 0 2.72 0 0 Z " fill="#9D9983" transform="translate(173,300)"/>
<path d="M0 0 C2.64 0 5.28 0 8 0 C8 2.64 8 5.28 8 8 C5.36 8 2.72 8 0 8 C0 5.36 0 2.72 0 0 Z " fill="#878272" transform="translate(123,283)"/>
<path d="M0 0 C2.64 0 5.28 0 8 0 C8 2.64 8 5.28 8 8 C5.36 8 2.72 8 0 8 C0 5.36 0 2.72 0 0 Z " fill="#9F9983" transform="translate(418,266)"/>
<path d="M0 0 C2.64 0 5.28 0 8 0 C8 2.64 8 5.28 8 8 C5.36 8 2.72 8 0 8 C0 5.36 0 2.72 0 0 Z " fill="#8A7A66" transform="translate(486,249)"/>
<path d="M0 0 C2.64 0 5.28 0 8 0 C8 2.64 8 5.28 8 8 C5.36 8 2.72 8 0 8 C0 5.36 0 2.72 0 0 Z " fill="#867A69" transform="translate(511,216)"/>
<path d="M0 0 C1.72974441 0.00015918 3.45949355 0.0058569 5.18920898 0.01586914 C6.09783188 0.01728409 7.00645477 0.01869904 7.94261169 0.02015686 C10.85687494 0.02577346 13.77106254 0.03832874 16.68530273 0.05102539 C18.65600475 0.05603825 20.62670797 0.06060153 22.59741211 0.06469727 C27.43923832 0.07574828 32.28100768 0.09302401 37.12280273 0.11352539 C37.12280273 0.44352539 37.12280273 0.77352539 37.12280273 1.11352539 C24.25280273 1.11352539 11.38280273 1.11352539 -1.87719727 1.11352539 C-2.20719727 3.09352539 -2.53719727 5.07352539 -2.87719727 7.11352539 C0.09280273 7.60852539 0.09280273 7.60852539 3.12280273 8.11352539 C3.12280273 8.44352539 3.12280273 8.77352539 3.12280273 9.11352539 C0.48280273 9.11352539 -2.15719727 9.11352539 -4.87719727 9.11352539 C-4.97485352 2.96118164 -4.97485352 2.96118164 -4.87719727 1.11352539 C-3.87719727 0.11352539 -3.87719727 0.11352539 0 0 Z " fill="#906F54" transform="translate(253.877197265625,214.886474609375)"/>
<path d="M0 0 C2.64 0 5.28 0 8 0 C8 2.64 8 5.28 8 8 C5.36 8 2.72 8 0 8 C0 5.36 0 2.72 0 0 Z " fill="#58523D" transform="translate(308,199)"/>
<path d="M0 0 C2.64 0 5.28 0 8 0 C8.04241723 2.33294775 8.04092937 4.66702567 8 7 C7 8 7 8 3.4375 8.0625 C2.303125 8.041875 1.16875 8.02125 0 8 C0 5.36 0 2.72 0 0 Z " fill="#59503D" transform="translate(494,249)"/>
<path d="M0 0 C2.64 0 5.28 0 8 0 C8 2.64 8 5.28 8 8 C5.66705225 8.04241723 3.33297433 8.04092937 1 8 C0 7 0 7 -0.0625 3.4375 C-0.041875 2.303125 -0.02125 1.16875 0 0 Z " fill="#58513C" transform="translate(502,241)"/>
<path d="M0 0 C2.33294775 -0.04241723 4.66702567 -0.04092937 7 0 C8 1 8 1 8.0625 4.5625 C8.041875 5.696875 8.02125 6.83125 8 8 C5.36 8 2.72 8 0 8 C0 5.36 0 2.72 0 0 Z " fill="#58523C" transform="translate(300,207)"/>
<path d="M0 0 C5.61 0 11.22 0 17 0 C17 0.33 17 0.66 17 1 C10.565 1.495 10.565 1.495 4 2 C4 2.66 4 3.32 4 4 C3.01 4.495 3.01 4.495 2 5 C1.67 14.57 1.34 24.14 1 34 C0.67 34 0.34 34 0 34 C0 22.78 0 11.56 0 0 Z " fill="#615846" transform="translate(97,156)"/>
<path d="M0 0 C2.33294775 -0.04241723 4.66702567 -0.04092937 7 0 C8 1 8 1 8.0625 4.5625 C8.041875 5.696875 8.02125 6.83125 8 8 C5.36 8 2.72 8 0 8 C0 5.36 0 2.72 0 0 Z " fill="#9F9B88" transform="translate(148,114)"/>
<path d="M0 0 C2.64 0 5.28 0 8 0 C7.4225 0.226875 6.845 0.45375 6.25 0.6875 C3.4336339 2.33038023 1.91922886 4.39533227 0 7 C0 4.69 0 2.38 0 0 Z M-1 9 C-1.78375 9.226875 -2.5675 9.45375 -3.375 9.6875 C-6.67656185 11.33828093 -6.81621625 12.61776073 -8 16 C-10.66503405 17.77668937 -12.01684573 18.32638452 -15 19 C-15.99 19.495 -15.99 19.495 -17 20 C-17 19.01 -17 18.02 -17 17 C-15.329375 16.7215625 -15.329375 16.7215625 -13.625 16.4375 C-12.42875 15.963125 -11.2325 15.48875 -10 15 C-8.45913678 11.48599332 -8.45913678 11.48599332 -8 8 C-4.51418144 6.7979936 -4.32007656 6.78661563 -1 9 Z " fill="#857660" transform="translate(131,106)"/>
<path d="M0 0 C2.64 0 5.28 0 8 0 C8.04241723 2.33294775 8.04092937 4.66702567 8 7 C7 8 7 8 4 8.125 C1 8 1 8 0 7 C-0.04092937 4.66702567 -0.04241723 2.33294775 0 0 Z " fill="#8B8472" transform="translate(97,401)"/>
<path d="M0 0 C1.4540625 0.0309375 1.4540625 0.0309375 2.9375 0.0625 C2.9375 3.0325 2.9375 6.0025 2.9375 9.0625 C0.6275 9.0625 -1.6825 9.0625 -4.0625 9.0625 C-4.16015625 2.91015625 -4.16015625 2.91015625 -4.0625 1.0625 C-3.0625 0.0625 -3.0625 0.0625 0 0 Z " fill="#575042" transform="translate(296.0625,214.9375)"/>
<path d="M0 0 C2.64 0 5.28 0 8 0 C8 2.64 8 5.28 8 8 C2.25 8.125 2.25 8.125 0 7 C0 4.69 0 2.38 0 0 Z " fill="#5B523E" transform="translate(317,190)"/>
<path d="M0 0 C5.75 -0.125 5.75 -0.125 8 1 C8.04254356 2.99954746 8.04080783 5.00041636 8 7 C7 8 7 8 3.4375 8.0625 C2.303125 8.041875 1.16875 8.02125 0 8 C0 5.36 0 2.72 0 0 Z " fill="#8D7961" transform="translate(486,401)"/>
<path d="M0 0 C1.134375 0.020625 2.26875 0.04125 3.4375 0.0625 C3.1075 0.7225 2.7775 1.3825 2.4375 2.0625 C0.4575 2.0625 -1.5225 2.0625 -3.5625 2.0625 C-3.5625 9.9825 -3.5625 17.9025 -3.5625 26.0625 C-0.5925 26.0625 2.3775 26.0625 5.4375 26.0625 C5.4375 28.0425 5.4375 30.0225 5.4375 32.0625 C3.4375 31.0625 3.4375 31.0625 2.4375 28.0625 C1.303125 27.93875 0.16875 27.815 -1 27.6875 C-2.175625 27.48125 -3.35125 27.275 -4.5625 27.0625 C-5.87976929 24.42796142 -5.59787578 22.59431067 -5.4765625 19.65234375 C-5.43273437 18.58048828 -5.38890625 17.50863281 -5.34375 16.40429688 C-5.2921875 15.28087891 -5.240625 14.15746094 -5.1875 13 C-5.14367187 11.87271484 -5.09984375 10.74542969 -5.0546875 9.58398438 C-4.64277762 0.08145224 -4.64277762 0.08145224 0 0 Z " fill="#585648" transform="translate(109.5625,247.9375)"/>
<path d="M0 0 C2.31 0 4.62 0 7 0 C7.33 2.64 7.66 5.28 8 8 C5.36 8 2.72 8 0 8 C0 5.36 0 2.72 0 0 Z " fill="#898573" transform="translate(283,258)"/>
<path d="M0 0 C2.31 0 4.62 0 7 0 C7 2.64 7 5.28 7 8 C4.69 8 2.38 8 0 8 C0 5.36 0 2.72 0 0 Z " fill="#A09C87" transform="translate(157,317)"/>
<path d="M0 0 C0.99 0.33 1.98 0.66 3 1 C2.34 1 1.68 1 1 1 C1 3.31 1 5.62 1 8 C3.93443402 7.73343428 3.93443402 7.73343428 7 7 C7.66 6.01 8.32 5.02 9 4 C8.67 5.65 8.34 7.3 8 9 C6.02 9.33 4.04 9.66 2 10 C1.67 18.25 1.34 26.5 1 35 C0.67 35 0.34 35 0 35 C-0.16764279 30.89587259 -0.3339474 26.79169203 -0.5 22.6875 C-0.54769531 21.52025391 -0.59539062 20.35300781 -0.64453125 19.15039062 C-0.68964844 18.03212891 -0.73476563 16.91386719 -0.78125 15.76171875 C-0.82314453 14.73006592 -0.86503906 13.69841309 -0.90820312 12.63549805 C-1.05943067 8.29373923 -0.648447 4.29596139 0 0 Z " fill="#474539" transform="translate(485,190)"/>
<path d="M0 0 C2.31 0 4.62 0 7 0 C7.04241723 2.33294775 7.04092937 4.66702567 7 7 C6 8 6 8 2.9375 8.0625 C1.968125 8.041875 0.99875 8.02125 0 8 C0 5.36 0 2.72 0 0 Z " fill="#8C8575" transform="translate(123,359)"/>
<path d="M0 0 C0.79148437 -0.01417969 1.58296875 -0.02835938 2.3984375 -0.04296875 C4.625 0.1875 4.625 0.1875 7.625 2.1875 C6.99851562 2.26226562 6.37203125 2.33703125 5.7265625 2.4140625 C3.21901809 2.81748447 0.99002817 3.25359491 -1.375 4.1875 C-3.06665301 7.17033157 -3.06665301 7.17033157 -3.375 10.1875 C-8.125 11.1875 -8.125 11.1875 -10.375 11.1875 C-10.375 10.5275 -10.375 9.8675 -10.375 9.1875 C-8.395 9.1875 -6.415 9.1875 -4.375 9.1875 C-4.560625 7.888125 -4.74625 6.58875 -4.9375 5.25 C-5.25390625 3.03515625 -5.25390625 3.03515625 -5.375 1.1875 C-3.79539731 -0.39210269 -2.17963184 0.01763456 0 0 Z " fill="#A89172" transform="translate(261.375,154.8125)"/>
<path d="M0 0 C1.32 0.33 2.64 0.66 4 1 C3.34 1 2.68 1 2 1 C2.020625 1.94875 2.04125 2.8975 2.0625 3.875 C2 7 2 7 1 9 C-1.54941373 9.31241371 -4.00361513 9.51303421 -6.5625 9.625 C-7.62887695 9.68300781 -7.62887695 9.68300781 -8.71679688 9.7421875 C-10.47742425 9.83671783 -12.23867728 9.91945817 -14 10 C-13.979375 11.299375 -13.95875 12.59875 -13.9375 13.9375 C-13.91600546 15.29165633 -13.92851801 16.64756083 -14 18 C-15 19 -15 19 -17.5625 19.0625 C-18.366875 19.041875 -19.17125 19.02125 -20 19 C-20 18.34 -20 17.68 -20 17 C-18.68 17 -17.36 17 -16 17 C-16.020625 15.700625 -16.04125 14.40125 -16.0625 13.0625 C-16.08399454 11.70834367 -16.07148199 10.35243917 -16 9 C-15 8 -15 8 -11.62109375 7.90234375 C-10.22652923 7.90901631 -8.83198257 7.92097468 -7.4375 7.9375 C-6.72658203 7.94201172 -6.01566406 7.94652344 -5.28320312 7.95117188 C-3.52209987 7.96299136 -1.76103964 7.98092737 0 8 C0 5.36 0 2.72 0 0 Z " fill="#A47D52" transform="translate(468,13)"/>
<path d="M0 0 C0.33 0 0.66 0 1 0 C1 2.64 1 5.28 1 8 C8.92 7.505 8.92 7.505 17 7 C17 7.66 17 8.32 17 9 C11.39436958 9.82622671 6.57710648 10.06795656 1 9 C1 11.64 1 14.28 1 17 C0.67 17 0.34 17 0 17 C0 14.36 0 11.72 0 9 C-5.28 9 -10.56 9 -16 9 C-16 8.67 -16 8.34 -16 8 C-10.72 8 -5.44 8 0 8 C0 5.36 0 2.72 0 0 Z " fill="#6E614E" transform="translate(485,249)"/>
<path d="M0 0 C0.33 0.66 0.66 1.32 1 2 C2.32 1.67 3.64 1.34 5 1 C4.67 2.65 4.34 4.3 4 6 C1.36 6 -1.28 6 -4 6 C-4 8.97 -4 11.94 -4 15 C-4.66 14.67 -5.32 14.34 -6 14 C-5.67 11.03 -5.34 8.06 -5 5 C-4.34 5 -3.68 5 -3 5 C-2.5359375 4.0409375 -2.5359375 4.0409375 -2.0625 3.0625 C-1 1 -1 1 0 0 Z " fill="#272E35" transform="translate(287,285)"/>
<path d="M0 0 C8.58 0 17.16 0 26 0 C26 0.33 26 0.66 26 1 C18.41 1.33 10.82 1.66 3 2 C3 3.98 3 5.96 3 8 C1.35 8.33 -0.3 8.66 -2 9 C-1.34 6.03 -0.68 3.06 0 0 Z " fill="#A88459" transform="translate(130,21)"/>
<path d="M0 0 C-0.33 0.99 -0.66 1.98 -1 3 C-1.804375 3.12375 -2.60875 3.2475 -3.4375 3.375 C-4.7059375 3.684375 -4.7059375 3.684375 -6 4 C-7.30048841 6.60097682 -7.56471422 9.13955062 -8 12 C-10.97 11.67 -13.94 11.34 -17 11 C-17 8.03 -17 5.06 -17 2 C-16.67 2 -16.34 2 -16 2 C-16 4.64 -16 7.28 -16 10 C-14.02 9.67 -12.04 9.34 -10 9 C-9.773125 7.88625 -9.54625 6.7725 -9.3125 5.625 C-8 2 -8 2 -5.5625 0.5625 C-3 0 -3 0 0 0 Z " fill="#9D8D73" transform="translate(460,281)"/>
<path d="M0 0 C2.27057377 -0.05398987 4.54151288 -0.09278742 6.8125 -0.125 C8.07707031 -0.14820313 9.34164062 -0.17140625 10.64453125 -0.1953125 C14 0 14 0 17 2 C13.53777385 3.06723961 10.35960734 3.10173486 6.75 3.0625 C5.67234375 3.05347656 4.5946875 3.04445313 3.484375 3.03515625 C2.66453125 3.02355469 1.8446875 3.01195312 1 3 C0.67 2.01 0.34 1.02 0 0 Z " fill="#787360" transform="translate(156,264)"/>
<path d="M0 0 C1.20628008 2.33214148 2.1654738 4.49642139 3 7 C2.34 7 1.68 7 1 7 C1.185625 8.175625 1.37125 9.35125 1.5625 10.5625 C2.08230996 14.61268594 1.7502354 17.99874453 1 22 C2.32 22 3.64 22 5 22 C5 22.66 5 23.32 5 24 C3.35 23.67 1.7 23.34 0 23 C-0.2165625 21.6078125 -0.2165625 21.6078125 -0.4375 20.1875 C-0.92100111 16.99274889 -0.92100111 16.99274889 -2 14 C-1.67 13.67 -1.34 13.34 -1 13 C-1 11.02601418 -1.00285027 9.05190651 -1.03125 7.078125 C-0.99441875 4.62884658 -0.59329331 2.37317322 0 0 Z " fill="#6D5B49" transform="translate(426,471)"/>
<path d="M0 0 C3.63 0 7.26 0 11 0 C11 2.64 11 5.28 11 8 C10.67 8 10.34 8 10 8 C9.34 6.02 8.68 4.04 8 2 C6.02 2.99 6.02 2.99 4 4 C4 6.97 4 9.94 4 13 C3.34 13 2.68 13 2 13 C1.93941406 12.31292969 1.87882812 11.62585938 1.81640625 10.91796875 C1.73261719 10.01691406 1.64882813 9.11585938 1.5625 8.1875 C1.48128906 7.29417969 1.40007812 6.40085938 1.31640625 5.48046875 C1.06510233 2.87256441 1.06510233 2.87256441 0 0 Z " fill="#AA9577" transform="translate(272,148)"/>
<path d="M0 0 C1.98 0 3.96 0 6 0 C6 2.31 6 4.62 6 7 C4.02 7 2.04 7 0 7 C0 4.69 0 2.38 0 0 Z " fill="#8B7B66" transform="translate(201,427)"/>
<path d="M0 0 C0.33 0 0.66 0 1 0 C1 10.89 1 21.78 1 33 C0.67 33 0.34 33 0 33 C-0.06058594 32.11957031 -0.12117188 31.23914063 -0.18359375 30.33203125 C-0.26738281 29.17058594 -0.35117188 28.00914062 -0.4375 26.8125 C-0.51871094 25.66394531 -0.59992188 24.51539063 -0.68359375 23.33203125 C-0.93210363 20.06075248 -0.93210363 20.06075248 -1.59765625 17.13671875 C-1.73042969 16.43160156 -1.86320312 15.72648437 -2 15 C-1.67 14.67 -1.34 14.34 -1 14 C-0.76472227 11.65012738 -0.58613583 9.29443961 -0.4375 6.9375 C-0.35371094 5.64714844 -0.26992187 4.35679687 -0.18359375 3.02734375 C-0.12300781 2.02832031 -0.06242187 1.02929688 0 0 Z " fill="#7D7764" transform="translate(114,368)"/>
<path d="M0 0 C4.95 0 9.9 0 15 0 C15 2.64 15 5.28 15 8 C13 6 13 6 12 3 C8.04 2.67 4.08 2.34 0 2 C0 1.34 0 0.68 0 0 Z " fill="#413A2C" transform="translate(141,190)"/>
<path d="M0 0 C0 0.99 0 1.98 0 3 C-0.84304687 2.97679687 -1.68609375 2.95359375 -2.5546875 2.9296875 C-3.65039062 2.91164063 -4.74609375 2.89359375 -5.875 2.875 C-6.96554688 2.85179687 -8.05609375 2.82859375 -9.1796875 2.8046875 C-12.1371051 2.69939466 -12.1371051 2.69939466 -14 5 C-14.64767793 7.57061311 -14.64767793 7.57061311 -15 10 C-15.33 10 -15.66 10 -16 10 C-16.09765625 3.84765625 -16.09765625 3.84765625 -16 2 C-15 1 -15 1 -11.875 0.9375 C-9.29166667 0.97916667 -6.70833333 1.02083333 -4.125 1.0625 C-1.1327033 1.36364533 -1.1327033 1.36364533 0 0 Z " fill="#AA8359" transform="translate(172,11)"/>
<path d="M0 0 C0.33 0 0.66 0 1 0 C1.82622671 5.60563042 2.06795656 10.42289352 1 16 C2.98 15.34 4.96 14.68 7 14 C7 12.02 7 10.04 7 8 C7.66 8 8.32 8 9 8 C9 10.97 9 13.94 9 17 C6.03 17 3.06 17 0 17 C0 11.39 0 5.78 0 0 Z " fill="#605A48" transform="translate(97,283)"/>
<path d="M0 0 C0.33 0.99 0.66 1.98 1 3 C-2.465 4.485 -2.465 4.485 -6 6 C-6.33 5.67 -6.66 5.34 -7 5 C-9.69235776 4.76321284 -12.36498156 4.57801975 -15.0625 4.4375 C-15.82111328 4.39431641 -16.57972656 4.35113281 -17.36132812 4.30664062 C-19.24065438 4.20026367 -21.12030244 4.09960066 -23 4 C-23 4.66 -23 5.32 -23 6 C-23.99 5.67 -24.98 5.34 -26 5 C-23.48083112 2.48083112 -22.55029911 2.72880823 -19.0625 2.65625 C-18.08539063 2.62660156 -17.10828125 2.59695313 -16.1015625 2.56640625 C-14.03385417 2.52213542 -11.96614583 2.47786458 -9.8984375 2.43359375 C-8.92132813 2.40394531 -7.94421875 2.37429688 -6.9375 2.34375 C-6.03902344 2.32505859 -5.14054687 2.30636719 -4.21484375 2.28710938 C-1.79571274 2.20260484 -1.79571274 2.20260484 0 0 Z " fill="#80725E" transform="translate(215,330)"/>
<path d="M0 0 C0 0.33 0 0.66 0 1 C-1.98 1.66 -3.96 2.32 -6 3 C-6.33 7.29 -6.66 11.58 -7 16 C-6.34 16.33 -5.68 16.66 -5 17 C-5.99 17 -6.98 17 -8 17 C-8 11.72 -8 6.44 -8 1 C-10.64 1 -13.28 1 -16 1 C-16 0.67 -16 0.34 -16 0 C-10.31302429 -0.91397824 -5.68697571 -0.91397824 0 0 Z " fill="#504439" transform="translate(257,274)"/>
<path d="M0 0 C0 0.99 0 1.98 0 3 C-0.92232422 2.98259766 -0.92232422 2.98259766 -1.86328125 2.96484375 C-3.07564453 2.95130859 -3.07564453 2.95130859 -4.3125 2.9375 C-5.11300781 2.92589844 -5.91351563 2.91429688 -6.73828125 2.90234375 C-9.16861334 2.90342145 -9.16861334 2.90342145 -12 4 C-12.33 5.65 -12.66 7.3 -13 9 C-13.33 9 -13.66 9 -14 9 C-14 6.36 -14 3.72 -14 1 C-9.38 0.67 -4.76 0.34 0 0 Z M-17 9 C-14 10 -14 10 -14 10 Z " fill="#A8825A" transform="translate(18,79)"/>
<path d="M0 0 C0.99 0 1.98 0 3 0 C3 2.97 3 5.94 3 9 C0.69 9.33 -1.62 9.66 -4 10 C-4.33 11.65 -4.66 13.3 -5 15 C-5.33 15 -5.66 15 -6 15 C-6.33 13.35 -6.66 11.7 -7 10 C-9.64 9.67 -12.28 9.34 -15 9 C-15 8.67 -15 8.34 -15 8 C-9.39 8 -3.78 8 2 8 C1.34 5.36 0.68 2.72 0 0 Z " fill="#7E725C" transform="translate(213,426)"/>
<path d="M0 0 C0.66 0 1.32 0 2 0 C2 4.95 2 9.9 2 15 C1.01 15.495 1.01 15.495 0 16 C-0.82622671 10.39436958 -1.06795656 5.57710648 0 0 Z " fill="#5A5446" transform="translate(113,232)"/>
<path d="M0 0 C2.05078125 0.03255208 4.1015625 0.06510417 6.15234375 0.09765625 C5.49234375 0.75765625 4.83234375 1.41765625 4.15234375 2.09765625 C2.83234375 2.09765625 1.51234375 2.09765625 0.15234375 2.09765625 C-0.8487514 5.40836463 -0.95121759 8.39850394 -0.91015625 11.84765625 C-0.90113281 12.8325 -0.89210938 13.81734375 -0.8828125 14.83203125 C-0.87121094 15.5796875 -0.85960938 16.32734375 -0.84765625 17.09765625 C-1.50765625 17.09765625 -2.16765625 17.09765625 -2.84765625 17.09765625 C-2.87450304 14.45175611 -2.89441982 11.80612529 -2.91015625 9.16015625 C-2.91853516 8.40541016 -2.92691406 7.65066406 -2.93554688 6.87304688 C-2.94418066 4.94771312 -2.89989958 3.02230044 -2.84765625 1.09765625 C-1.84765625 0.09765625 -1.84765625 0.09765625 0 0 Z " fill="#877962" transform="translate(107.84765625,138.90234375)"/>
<path d="M0 0 C0.33 0 0.66 0 1 0 C1 2.97 1 5.94 1 9 C-0.6396875 9.61875 -0.6396875 9.61875 -2.3125 10.25 C-5.51015942 11.60285591 -7.20653426 12.94055844 -9 16 C-8.67 13.36 -8.34 10.72 -8 8 C-5.36 8 -2.72 8 0 8 C0 5.36 0 2.72 0 0 Z " fill="#B4926A" transform="translate(528,106)"/>
<path d="M0 0 C2.05078125 0.03255208 4.1015625 0.06510417 6.15234375 0.09765625 C5.82234375 0.75765625 5.49234375 1.41765625 5.15234375 2.09765625 C2.15234375 3.09765625 2.15234375 3.09765625 -0.84765625 3.09765625 C-0.84765625 7.71765625 -0.84765625 12.33765625 -0.84765625 17.09765625 C-1.50765625 17.09765625 -2.16765625 17.09765625 -2.84765625 17.09765625 C-2.87450304 14.45175611 -2.89441982 11.80612529 -2.91015625 9.16015625 C-2.91853516 8.40541016 -2.92691406 7.65066406 -2.93554688 6.87304688 C-2.94418066 4.94771312 -2.89989958 3.02230044 -2.84765625 1.09765625 C-1.84765625 0.09765625 -1.84765625 0.09765625 0 0 Z " fill="#494535" transform="translate(124.84765625,172.90234375)"/>
<path d="M0 0 C1.134375 0.020625 2.26875 0.04125 3.4375 0.0625 C3.1075 1.3825 2.7775 2.7025 2.4375 4.0625 C1.1175 4.0625 -0.2025 4.0625 -1.5625 4.0625 C-3.3136573 5.4791747 -3.3136573 5.4791747 -4.5625 7.0625 C-4.60504356 5.06295254 -4.60330783 3.06208364 -4.5625 1.0625 C-3.5625 0.0625 -3.5625 0.0625 0 0 Z " fill="#342D24" transform="translate(287.5625,282.9375)"/>
<path d="M0 0 C0 0.66 0 1.32 0 2 C-2.31 2.33 -4.62 2.66 -7 3 C-7.33 4.98 -7.66 6.96 -8 9 C-8.66 8.67 -9.32 8.34 -10 8 C-10.1875 5.125 -10.1875 5.125 -10 2 C-6.3558226 -0.4294516 -4.28758728 -0.16179575 0 0 Z " fill="#7E7864" transform="translate(224,282)"/>
<path d="M0 0 C5.94 0 11.88 0 18 0 C17.67 1.32 17.34 2.64 17 4 C16.67 3.01 16.34 2.02 16 1 C14.08268082 1.11455681 12.1661325 1.24206258 10.25 1.375 C8.64898437 1.47941406 8.64898437 1.47941406 7.015625 1.5859375 C4.19793568 1.9728223 2.4169634 2.55686166 0 4 C0 2.68 0 1.36 0 0 Z " fill="#A68055" transform="translate(173,4)"/>
<path d="M0 0 C3.3 0 6.6 0 10 0 C10 2.64 10 5.28 10 8 C9.67 8 9.34 8 9 8 C8.67 6.35 8.34 4.7 8 3 C5.36 3 2.72 3 0 3 C0 2.01 0 1.02 0 0 Z " fill="#6D6C5F" transform="translate(272,300)"/>
<path d="M0 0 C5.28 0 10.56 0 16 0 C15.67 0.99 15.34 1.98 15 3 C12.03 2.505 12.03 2.505 9 2 C8.67 2.66 8.34 3.32 8 4 C8 3.01 8 2.02 8 1 C5.36 1 2.72 1 0 1 C0 0.67 0 0.34 0 0 Z " fill="#8C826A" transform="translate(140,333)"/>
<path d="M0 0 C0.33 0 0.66 0 1 0 C1 2.64 1 5.28 1 8 C-2.69308976 9.23102992 -5.88050712 8.87175152 -9.6875 8.5625 C-10.7403418 8.48418945 -10.7403418 8.48418945 -11.81445312 8.40429688 C-13.54338054 8.27492135 -15.27175355 8.13817469 -17 8 C-17 7.67 -17 7.34 -17 7 C-9.08 6.505 -9.08 6.505 -1 6 C-0.67 4.02 -0.34 2.04 0 0 Z " fill="#98907A" transform="translate(434,115)"/>
<path d="M0 0 C0.33 0 0.66 0 1 0 C2.35520942 8.43241416 1.67499048 16.53665785 1 25 C0.67 25 0.34 25 0 25 C-0.19693992 22.33373641 -0.38274782 19.66743361 -0.5625 17 C-0.64661133 15.88431641 -0.64661133 15.88431641 -0.73242188 14.74609375 C-1.06347285 9.66997882 -0.77163045 5.02988738 0 0 Z " fill="#7D7665" transform="translate(122,359)"/>
<path d="M0 0 C2.31 0 4.62 0 7 0 C6.360625 0.309375 5.72125 0.61875 5.0625 0.9375 C3.06389179 1.8345163 3.06389179 1.8345163 2 3 C1.76472227 5.34987262 1.58613583 7.70556039 1.4375 10.0625 C1.35371094 11.35285156 1.26992187 12.64320313 1.18359375 13.97265625 C1.12300781 14.97167969 1.06242187 15.97070312 1 17 C0.67 17 0.34 17 0 17 C0 11.39 0 5.78 0 0 Z " fill="#453624" transform="translate(89,199)"/>
<path d="M0 0 C1.32 0.33 2.64 0.66 4 1 C3.01 1.495 3.01 1.495 2 2 C1.59270772 4.32156597 1.25561323 6.6568787 1 9 C-0.65 9.33 -2.3 9.66 -4 10 C-3.01 9.67 -2.02 9.34 -1 9 C-1.33 8.01 -1.66 7.02 -2 6 C-1.0625 2.8125 -1.0625 2.8125 0 0 Z " fill="#6B5A47" transform="translate(452,434)"/>
<path d="M0 0 C1.32 0 2.64 0 4 0 C2.25 6.75 2.25 6.75 0 9 C-1.32 9 -2.64 9 -4 9 C-4 8.34 -4 7.68 -4 7 C-2.68 6.67 -1.36 6.34 0 6 C0 4.02 0 2.04 0 0 Z " fill="#B18960" transform="translate(416,38)"/>
<path d="M0 0 C0.33 0 0.66 0 1 0 C1 2.64 1 5.28 1 8 C-2.37817425 8.84454356 -4.67465243 9.10844919 -8 8 C-7.67 7.34 -7.34 6.68 -7 6 C-4.69 6 -2.38 6 0 6 C0 4.02 0 2.04 0 0 Z " fill="#5A5545" transform="translate(122,292)"/>
<path d="M0 0 C1.4370809 -0.05422947 2.87475462 -0.09289723 4.3125 -0.125 C5.11300781 -0.14820313 5.91351563 -0.17140625 6.73828125 -0.1953125 C9 0 9 0 12 2 C5.565 2.495 5.565 2.495 -1 3 C-0.67 2.01 -0.34 1.02 0 0 Z " fill="#9B8B73" transform="translate(257,155)"/>
<path d="M0 0 C1.98 0 3.96 0 6 0 C6 2 6 2 4.125 4.125 C2 6 2 6 0 6 C0 4.02 0 2.04 0 0 Z " fill="#685841" transform="translate(410,501)"/>
<path d="M0 0 C1.67542976 0.28604898 3.34385343 0.61781233 5 1 C4.34 1.391875 3.68 1.78375 3 2.1875 C0.70833333 3.85416667 0.70833333 3.85416667 0.75 6.6875 C0.8325 7.450625 0.915 8.21375 1 9 C0.34 9 -0.32 9 -1 9 C-1.09765625 2.84765625 -1.09765625 2.84765625 -1 1 C-0.67 0.67 -0.34 0.34 0 0 Z " fill="#6E5D4B" transform="translate(427,451)"/>
<path d="M0 0 C0.99 0 1.98 0 3 0 C2.67 1.98 2.34 3.96 2 6 C4.97 6.495 4.97 6.495 8 7 C8 7.33 8 7.66 8 8 C5.36 8 2.72 8 0 8 C0 5.36 0 2.72 0 0 Z " fill="#93755C" transform="translate(249,216)"/>
<path d="M0 0 C1.23556641 0.01740234 1.23556641 0.01740234 2.49609375 0.03515625 C3.32238281 0.04417969 4.14867187 0.05320312 5 0.0625 C5.63808594 0.07410156 6.27617187 0.08570313 6.93359375 0.09765625 C6.93359375 0.42765625 6.93359375 0.75765625 6.93359375 1.09765625 C4.29359375 1.75765625 1.65359375 2.41765625 -1.06640625 3.09765625 C-1.39640625 4.74765625 -1.72640625 6.39765625 -2.06640625 8.09765625 C-2.39640625 8.09765625 -2.72640625 8.09765625 -3.06640625 8.09765625 C-3.10882348 5.7647085 -3.10733562 3.43063058 -3.06640625 1.09765625 C-2.06640625 0.09765625 -2.06640625 0.09765625 0 0 Z M-5.06640625 8.09765625 C-3.06640625 9.09765625 -3.06640625 9.09765625 -3.06640625 9.09765625 Z " fill="#78715E" transform="translate(200.06640625,281.90234375)"/>
<path d="M0 0 C0.66 0 1.32 0 2 0 C2.33 2.97 2.66 5.94 3 9 C2.01 9.33 1.02 9.66 0 10 C-1.231394 6.30581799 -0.64432764 3.7943739 0 0 Z " fill="#3D392B" transform="translate(137,182)"/>
<path d="M0 0 C5.28 0 10.56 0 16 0 C16 0.99 16 1.98 16 3 C15.01 3.495 15.01 3.495 14 4 C14 3.01 14 2.02 14 1 C9.38 1 4.76 1 0 1 C0 0.67 0 0.34 0 0 Z " fill="#90775D" transform="translate(176,79)"/>
<path d="M0 0 C0 3.38023517 -0.87455622 5.83468937 -2 9 C-2.33 9 -2.66 9 -3 9 C-3.1875 5.625 -3.1875 5.625 -3 2 C-2.01 1.34 -1.02 0.68 0 0 Z " fill="#807360" transform="translate(184,367)"/>
<path d="M0 0 C0.66 0.33 1.32 0.66 2 1 C2.09765625 7.15234375 2.09765625 7.15234375 2 9 C1 10 1 10 -1.5625 10.0625 C-2.366875 10.041875 -3.17125 10.02125 -4 10 C-4 9.34 -4 8.68 -4 8 C-2.68 8 -1.36 8 0 8 C0 5.36 0 2.72 0 0 Z " fill="#9D754F" transform="translate(452,22)"/>
<path d="M0 0 C0.97582031 0.10183594 1.95164063 0.20367187 2.95703125 0.30859375 C3.69308594 0.39238281 4.42914063 0.47617188 5.1875 0.5625 C5.1875 0.8925 5.1875 1.2225 5.1875 1.5625 C-2.7325 2.0575 -2.7325 2.0575 -10.8125 2.5625 C-10.8125 1.9025 -10.8125 1.2425 -10.8125 0.5625 C-7.01982808 -0.3735342 -3.87575435 -0.42026252 0 0 Z " fill="#797462" transform="translate(150.8125,121.4375)"/>
<path d="M0 0 C0.66 0 1.32 0 2 0 C2.19412181 1.47831221 2.38012131 2.95769316 2.5625 4.4375 C2.66691406 5.26121094 2.77132813 6.08492188 2.87890625 6.93359375 C2.91886719 7.61550781 2.95882813 8.29742187 3 9 C2 10 2 10 -0.5625 10.0625 C-1.366875 10.041875 -2.17125 10.02125 -3 10 C-3 9.34 -3 8.68 -3 8 C-1.68 8 -0.36 8 1 8 C0.67 5.36 0.34 2.72 0 0 Z " fill="#78715E" transform="translate(323,88)"/>
<path d="M0 0 C0.598125 0.20625 1.19625 0.4125 1.8125 0.625 C0.884375 0.9653125 0.884375 0.9653125 -0.0625 1.3125 C-2.80160209 3.00429835 -3.23774472 4.61744161 -4.1875 7.625 C-4.5175 7.625 -4.8475 7.625 -5.1875 7.625 C-5.375 4.75 -5.375 4.75 -5.1875 1.625 C-2.1875 -0.375 -2.1875 -0.375 0 0 Z " fill="#6C5B46" transform="translate(515.1875,442.375)"/>
<path d="M0 0 C1.32 0.33 2.64 0.66 4 1 C3.67 3.31 3.34 5.62 3 8 C2.34 8 1.68 8 1 8 C0.67 5.36 0.34 2.72 0 0 Z " fill="#2F3034" transform="translate(291,291)"/>
<path d="M0 0 C0.33 0 0.66 0 1 0 C1 2.64 1 5.28 1 8 C-0.32 7.67 -1.64 7.34 -3 7 C-2.38722388 4.03824877 -1.74627478 2.61941217 0 0 Z " fill="#87836F" transform="translate(333,182)"/>
<path d="M0 0 C1.65 0 3.3 0 5 0 C4.01 1.485 4.01 1.485 3 3 C2.29835358 4.98799818 1.62627128 6.98698517 1 9 C0.67 9 0.34 9 0 9 C0 6.03 0 3.06 0 0 Z " fill="#433F2F" transform="translate(156,114)"/>
<path d="M0 0 C1.65 0.33 3.3 0.66 5 1 C4.01 1.495 4.01 1.495 3 2 C2.27840576 3.64363134 1.60648579 5.31050386 1 7 C-0.0625 5.1875 -0.0625 5.1875 -1 3 C-0.67 2.01 -0.34 1.02 0 0 Z " fill="#745E4A" transform="translate(410,509)"/>
<path d="M0 0 C0.66 0.66 1.32 1.32 2 2 C2.99 2.33 3.98 2.66 5 3 C4.67 3.66 4.34 4.32 4 5 C2.35 5 0.7 5 -1 5 C-0.67 3.35 -0.34 1.7 0 0 Z " fill="#79644B" transform="translate(402,421)"/>
<path d="M0 0 C0 0.33 0 0.66 0 1 C-5.68697571 1.91397824 -10.31302429 1.91397824 -16 1 C-16 0.67 -16 0.34 -16 0 C-10.31302429 -0.91397824 -5.68697571 -0.91397824 0 0 Z " fill="#494033" transform="translate(257,274)"/>
<path d="M0 0 C1.32 0.33 2.64 0.66 4 1 C3.34 1 2.68 1 2 1 C1.67 2.98 1.34 4.96 1 7 C0.01 7 -0.98 7 -2 7 C-1.42415568 4.61435923 -0.77772405 2.33317216 0 0 Z " fill="#989078" transform="translate(300,97)"/>
<path d="M0 0 C3.465 1.98 3.465 1.98 7 4 C7 4.33 7 4.66 7 5 C4.69 5 2.38 5 0 5 C0 3.35 0 1.7 0 0 Z " fill="#282316" transform="translate(325,176)"/>
<path d="M0 0 C1.32 0.33 2.64 0.66 4 1 C3.34 2.98 2.68 4.96 2 7 C1.34 7 0.68 7 0 7 C0 4.69 0 2.38 0 0 Z " fill="#8D8572" transform="translate(443,89)"/>
</svg>
